<?xml version="1.0" encoding="utf-8"?>
<!-- Generator: Adobe Illustrator 14.0.0, SVG Export Plug-In . SVG Version: 6.00 Build 43363)  -->
<!DOCTYPE svg PUBLIC "-//W3C//DTD SVG 1.1//EN" "http://www.w3.org/Graphics/SVG/1.1/DTD/svg11.dtd">
<svg version="1.1" id="Layer_1" xmlns="http://www.w3.org/2000/svg" xmlns:xlink="http://www.w3.org/1999/xlink" x="0px" y="0px"
	 width="50px" height="50px" viewBox="0 0 50 50" enable-background="new 0 0 50 50" xml:space="preserve">
<g>
	<g>
		<path fill="#E6E6E6" d="M6.711,34.104c0.537,6.878,7.341,6.253,11.166,2.478c2.326-2.295,7.291-15.317,1.434-15.788
			c-0.502-0.041-0.979,0.161-1.262,0.578c-1.719,2.54-2.016,10.205,2.91,8.885c2.305-0.617,4.537-3.583,6.141-5.077
			c4.165-3.879,8.214-7.881,12.179-11.965c0.838-0.863-1.035-1.103-1.604-0.518c-2.642,2.722-5.326,5.399-8.049,8.042
			c-0.907,0.881-9.437,10.146-10.744,6.018c0.168,0.532-0.012-5.48,0.829-2.864c0.502,1.562,0.061,3.548-0.222,5.12
			c-0.297,1.653-0.939,3.214-1.637,4.73c-2.093,4.543-8.728,6.041-9.211-0.155C8.578,32.755,6.641,33.21,6.711,34.104L6.711,34.104z
			"/>
	</g>
</g>
<g>
	<g>
		<path fill="#E6E6E6" d="M34.703,14.101c2.238-1.074,4.693-1.45,7.108-1.924c-0.372-0.279-0.745-0.558-1.118-0.837
			c-0.576,1.449-1.379,2.79-1.88,4.269c-0.549,1.62-0.865,3.359-1.924,4.747c0.455-0.122,0.91-0.244,1.366-0.366
			c-0.87-0.441-1.194-1.768-1.53-2.601c-0.452-1.119-1.198-2.061-1.614-3.208c-0.335-0.926-2.261-0.391-1.932,0.518
			c0.551,1.521,1.456,2.871,2.087,4.36c0.416,0.984,0.923,1.804,1.89,2.294c0.423,0.214,1.092-0.006,1.366-0.366
			c0.932-1.221,1.392-2.636,1.834-4.09c0.565-1.854,1.483-3.5,2.196-5.292c0.29-0.731-0.591-0.941-1.118-0.837
			c-2.601,0.51-5.202,0.957-7.61,2.112C32.637,13.448,33.692,14.585,34.703,14.101L34.703,14.101z"/>
	</g>
</g>
<g>
	<g>
		<path fill="#E6E6E6" d="M34.713,14.169c0.101,2.277,0.499,4.514,1.138,6.701c0.227,0.777,1.896,0.389,1.941-0.345
			c0.128-2.097-0.109-4.232,0.653-6.236c-0.627,0.057-1.255,0.114-1.883,0.171c0.138,1.271-0.363,2.501-0.544,3.744
			c-0.138,0.955,1.608,0.544,1.893,0.001c0.949-1.812,1.787-3.676,2.671-5.519c0.255-0.531-0.379-0.813-0.819-0.75
			c-1.104,0.16-2.505,0.625-3.265,1.493c-0.26,0.297-0.227,0.654-0.201,1.019c0.088,1.297,0.313,2.557,0.315,3.874
			c0.002,0.918,1.63,0.642,1.893,0.001c0.786-1.913-0.48-3.806-1.514-5.367c-0.45-0.68-2.304,0.028-1.775,0.826
			c0.775,1.17,2.062,2.889,1.455,4.366c0.631,0,1.262,0.001,1.893,0.001c-0.002-0.857-0.022-1.709-0.08-2.564
			c-0.037-0.558-0.143-1.109-0.255-1.655c-0.061-0.294,1.345-0.67,1.339-0.67c-0.273-0.25-0.547-0.5-0.819-0.75
			c-0.885,1.843-1.723,3.708-2.671,5.519c0.631,0,1.262,0.001,1.893,0.001c0.2-1.385,0.678-2.675,0.524-4.09
			c-0.085-0.781-1.686-0.347-1.883,0.171c-0.818,2.149-0.632,4.33-0.771,6.583c0.647-0.115,1.295-0.23,1.941-0.345
			c-0.603-2.067-1.023-4.201-1.118-6.355C36.621,13.028,34.678,13.372,34.713,14.169L34.713,14.169z"/>
	</g>
</g>
</svg>
