<?xml version="1.0" encoding="utf-8"?>
<!-- Generator: Adobe Illustrator 14.0.0, SVG Export Plug-In . SVG Version: 6.00 Build 43363)  -->
<!DOCTYPE svg PUBLIC "-//W3C//DTD SVG 1.1//EN" "http://www.w3.org/Graphics/SVG/1.1/DTD/svg11.dtd">
<svg version="1.1" id="Layer_1" xmlns="http://www.w3.org/2000/svg" xmlns:xlink="http://www.w3.org/1999/xlink" x="0px" y="0px"
	 width="500px" height="500px" viewBox="0 0 500 500" enable-background="new 0 0 500 500" xml:space="preserve">
<g>
	<g>
		<path fill="#E6E6E6" d="M147.099,61.736c11.258,17.328,16.381,38.284,26.363,56.5c10.945,19.943,24.829,38.285,38.499,56.405
			c6.662,8.816,32.995-1.235,25.273-11.473c-13.76-18.231-27.006-36.656-38.514-56.404c-10.577-18.141-14.923-38.868-26.367-56.487
			C166.433,41.12,140.001,50.804,147.099,61.736L147.099,61.736z"/>
	</g>
</g>
<g>
	<g>
		<path fill="#E6E6E6" d="M274.396,190.626c58.837-38.292,119.963-72.521,181.987-105.309c16.32-8.637-8.11-12.754-16.997-8.055
			c-62.012,32.807-123.149,67.038-181.987,105.308C241.83,192.698,265.688,196.275,274.396,190.626L274.396,190.626z"/>
	</g>
</g>
<g>
	<g>
		<path fill="#E6E6E6" d="M302.538,254.468c35.062,31.513,70.968,60.569,113.045,82.252c11.533,5.948,31.346-10.826,15.721-18.854
			c-40.051-20.656-74.364-49.535-107.691-79.502C314.267,229.978,290.561,243.689,302.538,254.468L302.538,254.468z"/>
	</g>
</g>
<g>
	<g>
		<path fill="#E6E6E6" d="M219.53,260.789c-13.005,19.839-19.126,42.299-25.981,64.812c-11.61,38.224-25.439,75.807-37.361,113.945
			c-2.71,8.679,24.628,4.84,27.324-3.8c9.657-30.9,19.763-61.65,30.127-92.316c9.329-27.575,15.118-58.144,31.249-82.766
			C251.437,250.697,224.029,253.899,219.53,260.789L219.53,260.789z"/>
	</g>
</g>
<g>
	<g>
		<path fill="#E6E6E6" d="M182.764,212.787c-57.527,19.547-111.797,51.705-168.513,74.123c-18.147,7.195-0.95,10.771,9.579,6.612
			c56.675-22.432,111.103-54.644,168.513-74.149C210.858,213.085,193.321,209.189,182.764,212.787L182.764,212.787z"/>
	</g>
</g>
<g>
	<g>
		<path fill="#E6E6E6" d="M269.737,60.599c-2.524,7.583-5.033,15.16-7.57,22.757c-2.19,6.571,8.485,8.478,12.422,8.117
			c6.725-0.597,13.061-4.027,15.251-10.585c2.523-7.583,5.046-15.166,7.569-22.756c2.19-6.571-8.471-8.492-12.436-8.124
			C278.277,50.603,271.928,54.041,269.737,60.599L269.737,60.599z"/>
	</g>
</g>
<g>
	<g>
		<path fill="#E6E6E6" d="M56.258,161.622c8.144,0,16.284,0,24.427,0c5.892,0,14.141-2.385,18.272-6.834
			c4.43-4.756-3.846-5.572-6.772-5.572c-8.145,0-16.283,0-24.427,0c-5.893,0-14.142,2.383-18.273,6.827
			C45.07,160.812,53.333,161.622,56.258,161.622L56.258,161.622z"/>
	</g>
</g>
<g>
	<g>
		<path fill="#E6E6E6" d="M97.453,365.821c6.302-5.685,11.472-12.368,16.921-18.827c4.388-5.185-3.688-8.042-7.451-8.152
			c-6.683-0.18-13.739,2.357-18.086,7.514c-4.333,5.13-8.387,10.342-13.386,14.862c-4.304,3.882-3.069,8.609,2.629,9.802
			C84.463,372.351,92.588,370.201,97.453,365.821L97.453,365.821z"/>
	</g>
</g>
<g>
	<g>
		<path fill="#E6E6E6" d="M322.585,368.274c-6.279-10.911-11.783-22.223-18.66-32.802c-4.811-7.403-31.471,1.428-25.508,10.579
			c6.183,9.509,11.089,19.754,16.745,29.555C300.348,384.619,326.634,375.331,322.585,368.274L322.585,368.274z"/>
	</g>
</g>
<g>
	<g>
		<path fill="#E6E6E6" d="M470.871,196.032c-16.609,1.774-33.022,4.866-49.716,5.906c-5.032,0.312-14.14,3.536-15.61,9.185
			c-1.594,6.177,8.472,5.864,11.784,5.65c16.678-1.019,33.093-4.119,49.701-5.907c5.06-0.554,14.099-3.361,15.624-9.185
			C484.208,195.603,474.199,195.665,470.871,196.032L470.871,196.032z"/>
	</g>
</g>
</svg>
