<?xml version="1.0" encoding="utf-8"?>
<!-- Generator: Adobe Illustrator 14.0.0, SVG Export Plug-In . SVG Version: 6.00 Build 43363)  -->
<!DOCTYPE svg PUBLIC "-//W3C//DTD SVG 1.1//EN" "http://www.w3.org/Graphics/SVG/1.1/DTD/svg11.dtd">
<svg version="1.1" xmlns="http://www.w3.org/2000/svg" xmlns:xlink="http://www.w3.org/1999/xlink" x="0px" y="0px" width="200px"
	 height="200px" viewBox="0 0 200 200" enable-background="new 0 0 200 200" xml:space="preserve">
<g id="Layer_2">
	<path fill="#33CCFF" stroke="#FFFFFF" stroke-width="15" d="M142.577,142.299c0,3.941-1.408,7.322-4.226,10.134
		c-2.817,2.815-6.195,4.222-10.139,4.222H99.812c-11.832,0-21.943-4.195-30.34-12.593c-8.398-8.397-12.593-18.507-12.593-30.341
		V56.418c0-4.056,1.398-7.463,4.195-10.226c2.796-2.759,6.212-4.142,10.244-4.142c3.915,0,7.278,1.408,10.071,4.226
		c2.801,2.812,4.204,6.188,4.204,10.131v14.355h42.568c3.958,0,7.351,1.408,10.179,4.226c2.829,2.813,4.237,6.19,4.237,10.131
		c0,3.938-1.408,7.319-4.226,10.134c-2.817,2.811-6.203,4.222-10.145,4.222H85.593v14.233c0,3.955,1.376,7.314,4.142,10.087
		c2.763,2.763,6.117,4.146,10.063,4.146h28.409c3.941,0,7.327,1.41,10.145,4.226S142.577,138.359,142.577,142.299z"/>
</g>
<g id="Layer_1">
	<path fill="#33CCFF" d="M142.577,142.299c0,3.941-1.408,7.322-4.226,10.134c-2.817,2.815-6.195,4.222-10.139,4.222H99.812
		c-11.832,0-21.943-4.195-30.34-12.593c-8.398-8.397-12.593-18.507-12.593-30.341V56.418c0-4.056,1.398-7.463,4.195-10.226
		c2.796-2.759,6.212-4.142,10.244-4.142c3.915,0,7.278,1.408,10.071,4.226c2.801,2.812,4.204,6.188,4.204,10.131v14.355h42.568
		c3.958,0,7.351,1.408,10.179,4.226c2.829,2.813,4.237,6.19,4.237,10.131c0,3.938-1.408,7.319-4.226,10.134
		c-2.817,2.811-6.203,4.222-10.145,4.222H85.593v14.233c0,3.955,1.376,7.314,4.142,10.087c2.763,2.763,6.117,4.146,10.063,4.146
		h28.409c3.941,0,7.327,1.41,10.145,4.226S142.577,138.359,142.577,142.299z"/>
</g>
</svg>
