<?xml version="1.0" encoding="utf-8"?>
<!-- Generator: Adobe Illustrator 14.0.0, SVG Export Plug-In . SVG Version: 6.00 Build 43363)  -->
<!DOCTYPE svg PUBLIC "-//W3C//DTD SVG 1.1//EN" "http://www.w3.org/Graphics/SVG/1.1/DTD/svg11.dtd">
<svg version="1.1" id="Layer_1" xmlns="http://www.w3.org/2000/svg" xmlns:xlink="http://www.w3.org/1999/xlink" x="0px" y="0px"
	 width="50px" height="50px" viewBox="0 0 50 50" enable-background="new 0 0 50 50" xml:space="preserve">
<g>
	<g>
		<path fill="#E6E6E6" stroke="#E6E6E6" stroke-width="2" stroke-miterlimit="1" d="M12.965,37.367
			c1.047-5.358,2.561-10.667,4.451-15.787c1.568-4.247,3.18-9.831,6.096-13.364c-0.596,0.13-1.191,0.261-1.787,0.391
			c1.229,1.564,1.337,4.2,1.762,6.048c0.553,2.406,1.164,4.799,1.739,7.2c1.117,4.661,2.293,9.336,3.266,14.028
			c0.624-0.199,1.248-0.398,1.873-0.6c-3.342-1.924-6.042-5.256-8.798-7.915c-3.284-3.168-7.338-5.492-10.549-8.702
			c-0.271,0.228-0.543,0.456-0.815,0.684c4.427-0.988,9.01-1.585,13.509-2.139c1.741-0.214,3.47-0.518,5.2-0.801
			c3.396-0.556,2.834,0.272,0.58,1.785c-6.294,4.225-11.951,9.749-16.462,15.819c-0.417,0.562,1.467,0.295,1.761-0.101
			c2.925-3.937,6.295-7.384,9.911-10.684c3.258-2.974,7.293-4.948,10.505-7.893c0.337-0.309-0.291-0.391-0.473-0.377
			c-8.185,0.654-16.702,1.915-24.713,3.704c-0.17,0.038-1.131,0.368-0.815,0.684c2.816,2.816,6.348,4.974,9.356,7.596
			c3.317,2.893,6.151,6.81,9.991,9.021c0.34,0.195,1.993-0.021,1.873-0.6c-1.097-5.296-2.436-10.567-3.695-15.827
			c-0.823-3.437-0.973-8.793-3.188-11.614c-0.299-0.382-1.552,0.106-1.787,0.391c-2.701,3.271-4.093,8.108-5.648,12.006
			c-2.227,5.583-3.898,11.464-5.05,17.362C10.95,38.209,12.864,37.881,12.965,37.367L12.965,37.367z"/>
	</g>
</g>
<g>
	<path fill="#FFFFFF" d="M13.792,48.94c0.39,0.25,0.95,0.439,1.549,0.439c0.89,0,1.409-0.47,1.409-1.148
		c0-0.62-0.36-0.99-1.269-1.33c-1.1-0.399-1.779-0.979-1.779-1.919c0-1.049,0.87-1.829,2.179-1.829c0.68,0,1.189,0.16,1.479,0.33
		l-0.24,0.71c-0.21-0.13-0.66-0.32-1.27-0.32c-0.919,0-1.27,0.55-1.27,1.01c0,0.63,0.41,0.939,1.339,1.299
		c1.14,0.44,1.709,0.99,1.709,1.979c0,1.039-0.759,1.949-2.349,1.949c-0.649,0-1.359-0.2-1.719-0.44L13.792,48.94z"/>
	<path fill="#FFFFFF" d="M19.832,44.003v1.16h1.259v0.669h-1.259v2.608c0,0.601,0.17,0.939,0.66,0.939c0.24,0,0.38-0.02,0.51-0.06
		l0.04,0.67c-0.17,0.06-0.44,0.12-0.78,0.12c-0.41,0-0.74-0.141-0.949-0.37c-0.24-0.27-0.34-0.699-0.34-1.27v-2.639h-0.75v-0.669
		h0.75v-0.9L19.832,44.003z"/>
	<path fill="#FFFFFF" d="M25.48,48.841c0,0.42,0.02,0.829,0.07,1.159h-0.79l-0.07-0.609h-0.03c-0.27,0.38-0.79,0.72-1.479,0.72
		c-0.979,0-1.479-0.69-1.479-1.39c0-1.169,1.04-1.809,2.909-1.799v-0.101c0-0.39-0.11-1.119-1.1-1.109
		c-0.459,0-0.929,0.13-1.269,0.36l-0.2-0.59c0.4-0.25,0.99-0.42,1.599-0.42c1.479,0,1.839,1.01,1.839,1.969V48.841z M24.631,47.531
		c-0.959-0.02-2.049,0.15-2.049,1.09c0,0.579,0.379,0.839,0.819,0.839c0.64,0,1.049-0.399,1.189-0.81
		c0.03-0.1,0.04-0.199,0.04-0.279V47.531z"/>
	<path fill="#FFFFFF" d="M26.902,46.672c0-0.569-0.01-1.06-0.041-1.509h0.77l0.041,0.959h0.029c0.221-0.649,0.76-1.06,1.35-1.06
		c0.09,0,0.16,0.01,0.24,0.021v0.829c-0.09-0.02-0.18-0.02-0.301-0.02c-0.619,0-1.059,0.459-1.179,1.119
		c-0.021,0.12-0.03,0.27-0.03,0.41V50h-0.879V46.672z"/>
</g>
</svg>
