<?xml version="1.0" encoding="utf-8"?>
<!-- Generator: Adobe Illustrator 14.0.0, SVG Export Plug-In . SVG Version: 6.00 Build 43363)  -->
<!DOCTYPE svg PUBLIC "-//W3C//DTD SVG 1.1//EN" "http://www.w3.org/Graphics/SVG/1.1/DTD/svg11.dtd">
<svg version="1.1" id="Layer_1" xmlns="http://www.w3.org/2000/svg" xmlns:xlink="http://www.w3.org/1999/xlink" x="0px" y="0px"
	 width="50px" height="50px" viewBox="0 0 50 50" enable-background="new 0 0 50 50" xml:space="preserve">
<g>
	<g>
		<path fill="#E6E6E6" stroke="#E6E6E6" stroke-width="2" stroke-miterlimit="1" d="M16.875,10.748
			c0.793,1.221,1.154,2.697,1.857,3.98c0.771,1.405,1.749,2.697,2.712,3.973c0.469,0.621,2.324-0.087,1.78-0.808
			c-0.969-1.284-1.902-2.582-2.713-3.973c-0.745-1.278-1.051-2.738-1.857-3.979C18.237,9.296,16.375,9.978,16.875,10.748
			L16.875,10.748z"/>
	</g>
</g>
<g>
	<g>
		<path fill="#E6E6E6" stroke="#E6E6E6" stroke-width="2" stroke-miterlimit="1" d="M25.842,19.827
			c4.145-2.697,8.45-5.108,12.819-7.418c1.149-0.608-0.571-0.898-1.197-0.567c-4.368,2.311-8.675,4.722-12.819,7.418
			C23.548,19.973,25.229,20.225,25.842,19.827L25.842,19.827z"/>
	</g>
</g>
<g>
	<g>
		<path fill="#E6E6E6" stroke="#E6E6E6" stroke-width="2" stroke-miterlimit="1" d="M27.824,24.324
			c2.47,2.22,4.999,4.267,7.963,5.794c0.812,0.419,2.208-0.763,1.107-1.328c-2.821-1.455-5.238-3.489-7.586-5.6
			C28.65,22.599,26.98,23.565,27.824,24.324L27.824,24.324z"/>
	</g>
</g>
<g>
	<g>
		<path fill="#E6E6E6" stroke="#E6E6E6" stroke-width="2" stroke-miterlimit="1" d="M21.977,24.769
			c-0.916,1.398-1.347,2.98-1.83,4.566c-0.818,2.692-1.792,5.34-2.632,8.026c-0.191,0.611,1.735,0.341,1.925-0.27
			c0.68-2.177,1.392-4.343,2.122-6.503c0.657-1.94,1.065-4.096,2.201-5.83C24.225,24.058,22.294,24.284,21.977,24.769L21.977,24.769
			z"/>
	</g>
</g>
<g>
	<g>
		<path fill="#E6E6E6" stroke="#E6E6E6" stroke-width="2" stroke-miterlimit="1" d="M19.387,21.388
			c-4.052,1.377-7.875,3.642-11.87,5.221c-1.278,0.507-0.067,0.759,0.675,0.466c3.992-1.58,7.826-3.849,11.87-5.223
			C21.366,21.409,20.131,21.135,19.387,21.388L19.387,21.388z"/>
	</g>
</g>
<g>
	<g>
		<path fill="#E6E6E6" stroke="#E6E6E6" stroke-width="2" stroke-miterlimit="1" d="M25.514,10.668
			c-0.178,0.534-0.354,1.068-0.534,1.603c-0.154,0.463,0.598,0.597,0.875,0.572c0.474-0.042,0.92-0.284,1.074-0.746
			c0.178-0.534,0.354-1.068,0.531-1.603c0.154-0.463-0.598-0.598-0.876-0.572C26.115,9.964,25.668,10.206,25.514,10.668
			L25.514,10.668z"/>
	</g>
</g>
<g>
	<g>
		<path fill="#E6E6E6" stroke="#E6E6E6" stroke-width="2" stroke-miterlimit="1" d="M10.476,17.784c0.574,0,1.147,0,1.721,0
			c0.415,0,0.996-0.168,1.287-0.481c0.312-0.335-0.271-0.393-0.477-0.393c-0.574,0-1.147,0-1.721,0
			c-0.415,0-0.996,0.168-1.287,0.481C9.688,17.727,10.27,17.784,10.476,17.784L10.476,17.784z"/>
	</g>
</g>
<g>
	<g>
		<path fill="#E6E6E6" stroke="#E6E6E6" stroke-width="2" stroke-miterlimit="1" d="M13.378,32.168
			c0.444-0.4,0.808-0.871,1.192-1.326c0.309-0.365-0.26-0.566-0.525-0.574c-0.471-0.013-0.968,0.166-1.274,0.529
			c-0.305,0.361-0.591,0.729-0.943,1.047c-0.303,0.273-0.216,0.606,0.185,0.69C12.463,32.628,13.035,32.477,13.378,32.168
			L13.378,32.168z"/>
	</g>
</g>
<g>
	<g>
		<path fill="#E6E6E6" stroke="#E6E6E6" stroke-width="2" stroke-miterlimit="1" d="M29.236,32.341
			c-0.442-0.769-0.83-1.565-1.314-2.312c-0.339-0.521-2.217,0.102-1.797,0.746c0.436,0.67,0.781,1.392,1.18,2.082
			C27.67,33.492,29.521,32.838,29.236,32.341L29.236,32.341z"/>
	</g>
</g>
<g>
	<g>
		<path fill="#E6E6E6" stroke="#E6E6E6" stroke-width="2" stroke-miterlimit="1" d="M39.682,20.208
			c-1.17,0.125-2.326,0.343-3.502,0.416c-0.354,0.022-0.996,0.249-1.1,0.647c-0.112,0.435,0.597,0.413,0.83,0.398
			c1.175-0.072,2.331-0.29,3.501-0.416c0.356-0.039,0.993-0.237,1.101-0.647C40.621,20.178,39.916,20.182,39.682,20.208
			L39.682,20.208z"/>
	</g>
</g>
<g>
	<path fill="#FFFFFF" d="M7.724,46.45c-0.06-1.128-0.132-2.495-0.132-3.49H7.568c-0.288,0.936-0.612,1.955-1.02,3.07l-1.427,3.922
		H4.33l-1.319-3.85c-0.384-1.151-0.695-2.184-0.923-3.143H2.063c-0.024,1.008-0.084,2.351-0.156,3.574L1.691,50H0.696l0.563-8.084
		h1.332l1.379,3.91c0.336,0.995,0.6,1.883,0.815,2.723H4.81c0.216-0.815,0.503-1.703,0.863-2.723l1.439-3.91h1.331L8.947,50H7.916
		L7.724,46.45z"/>
	<path fill="#FFFFFF" d="M14.673,48.608c0,0.504,0.024,0.996,0.084,1.392H13.81l-0.084-0.731h-0.036
		c-0.324,0.456-0.947,0.863-1.775,0.863c-1.175,0-1.775-0.827-1.775-1.667c0-1.403,1.247-2.171,3.49-2.159v-0.119
		c0-0.468-0.132-1.344-1.319-1.332c-0.552,0-1.116,0.156-1.523,0.432l-0.24-0.707c0.479-0.3,1.187-0.504,1.919-0.504
		c1.775,0,2.207,1.211,2.207,2.362V48.608z M13.653,47.038c-1.151-0.024-2.458,0.18-2.458,1.307c0,0.696,0.456,1.008,0.983,1.008
		c0.768,0,1.259-0.479,1.427-0.972c0.036-0.12,0.048-0.24,0.048-0.336V47.038z"/>
	<path fill="#FFFFFF" d="M16.379,46.006c0-0.684-0.012-1.271-0.048-1.811h0.923l0.048,1.151h0.036
		c0.264-0.779,0.912-1.271,1.619-1.271c0.108,0,0.192,0.012,0.288,0.024v0.995c-0.108-0.024-0.216-0.024-0.36-0.024
		c-0.744,0-1.271,0.552-1.416,1.344c-0.024,0.144-0.036,0.324-0.036,0.491V50h-1.056V46.006z"/>
	<path fill="#FFFFFF" d="M21.395,46.857h0.024c0.144-0.203,0.336-0.455,0.504-0.659l1.715-2.003h1.259l-2.23,2.387L25.221,50h-1.295
		l-1.991-2.782l-0.54,0.6V50h-1.043v-8.516h1.043V46.857z"/>
	<path fill="#FFFFFF" d="M28.559,42.024c0.528-0.096,1.296-0.168,2.003-0.168c1.116,0,1.848,0.216,2.339,0.659
		c0.396,0.36,0.636,0.912,0.636,1.548c0,1.056-0.672,1.763-1.511,2.051v0.036c0.611,0.216,0.983,0.791,1.175,1.631
		c0.264,1.127,0.456,1.907,0.624,2.219h-1.079c-0.133-0.24-0.312-0.924-0.528-1.931c-0.239-1.115-0.684-1.535-1.631-1.571h-0.983V50
		h-1.044V42.024z M29.603,45.706h1.067c1.115,0,1.823-0.611,1.823-1.535c0-1.043-0.756-1.499-1.859-1.499
		c-0.504,0-0.852,0.036-1.031,0.084V45.706z"/>
	<path fill="#FFFFFF" d="M35.614,47.289c0.024,1.428,0.924,2.016,1.991,2.016c0.756,0,1.224-0.132,1.607-0.3l0.191,0.755
		c-0.372,0.168-1.02,0.372-1.942,0.372c-1.787,0-2.854-1.188-2.854-2.938s1.031-3.118,2.723-3.118c1.906,0,2.398,1.655,2.398,2.723
		c0,0.216-0.012,0.372-0.036,0.491H35.614z M38.709,46.534c0.012-0.66-0.276-1.703-1.463-1.703c-1.08,0-1.535,0.972-1.619,1.703
		H38.709z"/>
	<path fill="#FFFFFF" d="M45.116,48.608c0,0.504,0.024,0.996,0.084,1.392h-0.947l-0.084-0.731h-0.036
		c-0.324,0.456-0.947,0.863-1.775,0.863c-1.175,0-1.774-0.827-1.774-1.667c0-1.403,1.247-2.171,3.49-2.159v-0.119
		c0-0.468-0.132-1.344-1.319-1.332c-0.552,0-1.115,0.156-1.523,0.432l-0.24-0.707c0.48-0.3,1.188-0.504,1.919-0.504
		c1.775,0,2.207,1.211,2.207,2.362V48.608z M44.097,47.038c-1.151-0.024-2.458,0.18-2.458,1.307c0,0.696,0.455,1.008,0.983,1.008
		c0.768,0,1.259-0.479,1.427-0.972c0.036-0.12,0.048-0.24,0.048-0.336V47.038z"/>
	<path fill="#FFFFFF" d="M51.824,41.484v7.017c0,0.516,0.023,1.104,0.048,1.499h-0.936l-0.048-1.008h-0.036
		c-0.312,0.648-1.008,1.14-1.955,1.14c-1.403,0-2.494-1.188-2.494-2.95c-0.013-1.931,1.199-3.106,2.603-3.106
		c0.899,0,1.487,0.42,1.751,0.876h0.023v-3.467H51.824z M50.78,46.558c0-0.132-0.012-0.312-0.048-0.443
		c-0.155-0.66-0.731-1.212-1.523-1.212c-1.091,0-1.738,0.96-1.738,2.231c0,1.175,0.588,2.146,1.715,2.146
		c0.708,0,1.355-0.479,1.547-1.259c0.036-0.145,0.048-0.288,0.048-0.456V46.558z"/>
</g>
</svg>
