<?xml version="1.0" encoding="utf-8"?>
<!-- Generator: Adobe Illustrator 14.0.0, SVG Export Plug-In . SVG Version: 6.00 Build 43363)  -->
<!DOCTYPE svg PUBLIC "-//W3C//DTD SVG 1.1//EN" "http://www.w3.org/Graphics/SVG/1.1/DTD/svg11.dtd">
<svg version="1.1" id="Layer_1" xmlns="http://www.w3.org/2000/svg" xmlns:xlink="http://www.w3.org/1999/xlink" x="0px" y="0px"
	 width="50px" height="50px" viewBox="0 0 50 50" enable-background="new 0 0 50 50" xml:space="preserve">
<g>
	<g id="XMLID_1_">
		<g>
			<path fill="#FFE600" d="M16.94,18.12c-0.27,0.75-0.55,1.49-0.83,2.2c-0.27,0.66-0.52,1.33-0.77,2.01
				c-1.35-1.02-2.67-2.08-3.89-3.24C13.26,18.71,15.1,18.4,16.94,18.12z"/>
			<path fill="#FFE600" d="M18.56,26.939c0.09,0.08,0.18,0.16,0.27,0.24c-1.73,1.779-3.35,3.649-4.85,5.59
				c0.64-2.609,1.39-5.189,2.23-7.741C17.02,25.65,17.8,26.28,18.56,26.939z"/>
			<path fill="#FFE600" d="M28,33.641c-2.32-1.881-4.36-4.271-6.43-6.271c-0.2-0.19-0.4-0.38-0.6-0.57c1.21-1.22,2.45-2.4,3.73-3.57
				c0.23-0.21,0.47-0.42,0.71-0.62C26.29,26.28,27.2,29.95,28,33.641z"/>
			<path fill="#FFE600" d="M26.23,16.85c0.898-0.14,1.789-0.3,2.68-0.44c3.398-0.56,2.84,0.27,0.58,1.78
				c-0.891,0.6-1.771,1.22-2.631,1.87c-0.051-0.17-0.09-0.35-0.129-0.52C26.54,18.73,26.38,17.82,26.23,16.85z"/>
			<path fill="#FFE600" d="M23.49,14.65c0.12,0.51,0.23,1.01,0.35,1.51c-1.58,0.22-3.16,0.47-4.74,0.73
				c0.9-2.48,1.94-5.01,3.29-7.11C23.01,11.3,23.15,13.22,23.49,14.65z"/>
			<path fill="#FFE600" d="M24.08,17.16c0.35,1.42,0.7,2.83,1.04,4.25c-1.77,1.43-3.48,2.95-5.1,4.57c-1.05-0.9-2.15-1.74-3.26-2.57
				c0.22-0.61,0.44-1.22,0.66-1.83c0.43-1.17,0.86-2.43,1.32-3.73c1.66-0.23,3.32-0.43,4.97-0.64
				C23.83,17.2,23.96,17.18,24.08,17.16z"/>
			<path fill="#FFE600" d="M26.08,15.86c2.9-0.37,5.8-0.67,8.65-0.9c0.188-0.02,0.81,0.07,0.479,0.38
				c-2.439,2.24-5.37,3.91-8.061,5.9c-0.109-0.39-0.199-0.79-0.289-1.18c0.858-0.65,1.738-1.27,2.629-1.87
				c2.261-1.51,2.82-2.34-0.579-1.78c-0.892,0.14-1.78,0.3-2.681,0.44C26.18,16.53,26.12,16.19,26.08,15.86z"/>
			<path fill="#FFE600" d="M28.49,35.88c0.63-0.2,1.24-0.399,1.869-0.6C29.54,34.8,28.75,34.24,28,33.639
				c-0.8-3.688-1.71-7.358-2.59-11.03c0.561-0.48,1.14-0.93,1.74-1.37c1.129,4.7,2.3,9.399,3.279,14.13
				c0.119,0.58-1.541,0.79-1.881,0.59c-0.029-0.02-0.05-0.029-0.08-0.05L28.49,35.88z"/>
			<path fill="#FFE600" d="M30.359,35.28c-0.629,0.2-1.239,0.399-1.869,0.6c-0.15-0.75-0.311-1.5-0.49-2.239
				C28.75,34.24,29.54,34.8,30.359,35.28z"/>
			<path fill="#FFE600" d="M26.73,19.54c0.039,0.17,0.078,0.35,0.129,0.52c-0.59,0.44-1.17,0.89-1.739,1.35
				c-0.34-1.42-0.69-2.83-1.04-4.25c0.72-0.09,1.439-0.2,2.15-0.31C26.38,17.82,26.54,18.73,26.73,19.54z"/>
			<path fill="#FFE600" d="M26.08,15.86c0.04,0.33,0.1,0.67,0.15,0.99c-0.711,0.11-1.432,0.22-2.15,0.31
				c-0.08-0.33-0.16-0.66-0.24-1C24.59,16.06,25.33,15.96,26.08,15.86z"/>
			<path fill="#FFE600" d="M27.15,21.24c-0.602,0.44-1.182,0.89-1.74,1.37c-0.06-0.25-0.12-0.51-0.18-0.76
				c-0.04-0.15-0.07-0.29-0.11-0.44c0.569-0.46,1.149-0.91,1.739-1.35C26.95,20.45,27.04,20.85,27.15,21.24z"/>
			<path fill="#FFE600" d="M20.02,25.98c1.62-1.622,3.33-3.142,5.1-4.57c0.04,0.15,0.07,0.29,0.11,0.44
				c0.06,0.25,0.12,0.51,0.18,0.76c-0.24,0.2-0.48,0.41-0.71,0.62c-1.28,1.17-2.52,2.35-3.73,3.57
				C20.66,26.53,20.35,26.25,20.02,25.98z"/>
			<path fill="#FFE600" d="M28,33.641c0.18,0.739,0.34,1.489,0.49,2.239l-0.021,0.03c-3.33-1.94-5.91-5.16-8.71-7.86
				c0.4-0.42,0.8-0.84,1.21-1.25c0.2,0.19,0.4,0.38,0.6,0.57C23.64,29.37,25.68,31.76,28,33.641z"/>
			<path fill="#FFE600" d="M24.08,17.16c-0.12,0.02-0.25,0.04-0.37,0.05c-1.65,0.21-3.31,0.41-4.97,0.64
				c0.12-0.32,0.24-0.64,0.36-0.96c1.58-0.26,3.16-0.51,4.74-0.73C23.92,16.5,24,16.83,24.08,17.16z"/>
			<path fill="#FFE600" d="M21.73,8.61c0.59-0.13,1.19-0.26,1.78-0.39c-0.4,0.48-0.77,1-1.12,1.561C22.21,9.35,22,8.95,21.73,8.61z"
				/>
			<path fill="#FFE600" d="M23.54,7.92c1.52,1.94,2.069,5.06,2.54,7.94c-0.75,0.1-1.49,0.2-2.24,0.3c-0.12-0.5-0.23-1-0.35-1.51
				c-0.34-1.43-0.48-3.35-1.1-4.87c0.35-0.561,0.72-1.08,1.12-1.561c-0.59,0.13-1.19,0.26-1.78,0.39l-0.13-0.1
				c0.04-0.07,0.1-0.13,0.15-0.2C21.99,8.03,23.24,7.54,23.54,7.92z"/>
			<path fill="#FFE600" d="M20.02,25.98c0.33,0.27,0.64,0.55,0.95,0.818c-0.41,0.41-0.81,0.83-1.21,1.25
				c-0.31-0.3-0.62-0.59-0.93-0.869C19.22,26.77,19.62,26.37,20.02,25.98z"/>
			<path fill="#FFE600" d="M22.39,9.78c-1.35,2.1-2.39,4.63-3.29,7.11c-0.61,0.1-1.22,0.21-1.82,0.32c1.14-3.06,2.39-6.28,4.32-8.7
				l0.13,0.1C22,8.95,22.21,9.35,22.39,9.78z"/>
			<path fill="#FFE600" d="M19.76,28.05c-1.76,1.851-3.43,3.79-4.97,5.86c-0.15,0.21-0.71,0.37-1.18,0.41
				c0.12-0.521,0.24-1.03,0.37-1.551c1.5-1.939,3.12-3.811,4.85-5.59C19.14,27.46,19.45,27.75,19.76,28.05z"/>
			<path fill="#FFE600" d="M17.28,17.21c0.6-0.11,1.21-0.22,1.82-0.32c-0.12,0.32-0.24,0.64-0.36,0.96c-0.6,0.09-1.2,0.18-1.8,0.27
				C17.06,17.82,17.17,17.51,17.28,17.21z"/>
			<path fill="#FFE600" d="M18.74,17.85c-0.46,1.3-0.89,2.56-1.32,3.73c-0.22,0.61-0.44,1.22-0.66,1.83
				c-0.47-0.36-0.95-0.72-1.42-1.08c0.25-0.68,0.5-1.35,0.77-2.01c0.28-0.71,0.56-1.45,0.83-2.2
				C17.54,18.03,18.14,17.94,18.74,17.85z"/>
			<path fill="#FFE600" d="M16.76,23.41c1.11,0.83,2.21,1.67,3.26,2.57c-0.4,0.39-0.8,0.789-1.19,1.199
				c-0.09-0.08-0.18-0.16-0.27-0.24c-0.76-0.659-1.54-1.289-2.35-1.911C16.39,24.49,16.58,23.95,16.76,23.41z"/>
			<path fill="#FFE600" d="M16.76,23.41c-0.18,0.54-0.37,1.08-0.55,1.62c-0.48-0.36-0.96-0.73-1.45-1.09
				c0.19-0.54,0.38-1.08,0.58-1.61C15.81,22.69,16.29,23.05,16.76,23.41z"/>
			<path fill="#FFE600" d="M13.03,34.01c0.31-0.42,0.62-0.83,0.95-1.24c-0.13,0.521-0.25,1.03-0.37,1.551
				C13.17,34.359,12.82,34.28,13.03,34.01z"/>
			<path fill="#FFE600" d="M13.03,34.01c-0.21,0.271,0.14,0.352,0.58,0.311c-0.23,1.021-0.45,2.029-0.65,3.051
				c-0.1,0.51-2.01,0.84-1.9,0.311c0.9-4.631,2.13-9.261,3.7-13.741c0.49,0.36,0.97,0.73,1.45,1.09c-0.84,2.55-1.59,5.13-2.23,7.74
				C13.65,33.18,13.34,33.59,13.03,34.01z"/>
			<path fill="#FFE600" d="M11.02,18.67c0.14,0.14,0.28,0.28,0.43,0.42c-0.42,0.08-0.84,0.17-1.25,0.26
				C10.48,19.12,10.75,18.89,11.02,18.67z"/>
			<path fill="#FFE600" d="M11.45,19.09c1.22,1.16,2.54,2.22,3.89,3.24c-0.2,0.53-0.39,1.07-0.58,1.61
				c-1.93-1.46-3.87-2.91-5.55-4.59c-0.32-0.32,0.64-0.65,0.81-0.69c2.38-0.53,4.81-1.02,7.26-1.45c-0.11,0.3-0.22,0.61-0.34,0.91
				C15.1,18.4,13.26,18.71,11.45,19.09c-0.15-0.14-0.29-0.28-0.43-0.42c-0.27,0.22-0.54,0.45-0.82,0.68
				C10.61,19.26,11.03,19.17,11.45,19.09z"/>
		</g>
		<g>
			<path fill="none" stroke="#FFE600" stroke-width="2" stroke-miterlimit="1" d="M11.45,19.09c1.81-0.38,3.65-0.69,5.49-0.97
				c0.6-0.09,1.2-0.18,1.8-0.27c1.66-0.23,3.32-0.43,4.97-0.64c0.12-0.01,0.25-0.03,0.37-0.05c0.72-0.09,1.439-0.2,2.15-0.31
				c0.898-0.14,1.789-0.3,2.68-0.44c3.398-0.56,2.84,0.27,0.58,1.78c-0.891,0.6-1.771,1.22-2.631,1.87
				c-0.59,0.44-1.17,0.89-1.739,1.35c-1.77,1.43-3.48,2.95-5.1,4.57c-0.4,0.39-0.8,0.789-1.19,1.199
				c-1.73,1.779-3.35,3.649-4.85,5.59c-0.33,0.41-0.64,0.819-0.95,1.239c-0.21,0.271,0.14,0.351,0.58,0.312
				c0.47-0.04,1.03-0.2,1.18-0.41c1.54-2.07,3.21-4.01,4.97-5.86c0.4-0.42,0.8-0.84,1.21-1.25c1.21-1.22,2.45-2.4,3.73-3.57
				c0.23-0.21,0.47-0.42,0.71-0.62c0.561-0.48,1.14-0.93,1.74-1.37c2.688-1.99,5.619-3.66,8.06-5.9c0.33-0.31-0.29-0.4-0.479-0.38
				c-2.851,0.23-5.75,0.53-8.649,0.9c-0.75,0.1-1.49,0.2-2.24,0.3c-1.58,0.22-3.16,0.47-4.74,0.73c-0.61,0.1-1.22,0.21-1.82,0.32
				c-2.45,0.43-4.88,0.92-7.26,1.45c-0.17,0.04-1.13,0.37-0.81,0.69c1.68,1.68,3.62,3.13,5.55,4.59c0.49,0.36,0.97,0.73,1.45,1.09
				c0.81,0.62,1.59,1.25,2.35,1.911c0.09,0.078,0.18,0.158,0.27,0.238c0.31,0.28,0.62,0.57,0.93,0.87c2.8,2.7,5.38,5.921,8.709,7.86
				c0.03,0.02,0.051,0.029,0.08,0.05c0.34,0.2,2-0.01,1.881-0.59c-0.979-4.729-2.149-9.431-3.279-14.13
				c-0.11-0.39-0.2-0.79-0.291-1.18c-0.051-0.17-0.09-0.35-0.129-0.52c-0.19-0.81-0.352-1.72-0.5-2.69
				c-0.051-0.32-0.11-0.66-0.15-0.99c-0.471-2.88-1.02-6-2.54-7.94c-0.3-0.38-1.55,0.11-1.79,0.39c-0.05,0.07-0.11,0.13-0.15,0.2
				c-1.93,2.42-3.18,5.64-4.32,8.7c-0.11,0.3-0.22,0.61-0.34,0.91c-0.27,0.75-0.55,1.49-0.83,2.2c-0.27,0.66-0.52,1.33-0.77,2.01
				c-0.2,0.53-0.39,1.07-0.58,1.61c-1.57,4.48-2.8,9.11-3.7,13.74c-0.11,0.53,1.8,0.2,1.9-0.31c0.2-1.021,0.42-2.03,0.65-3.05
				c0.12-0.521,0.24-1.03,0.37-1.551c0.64-2.609,1.39-5.189,2.23-7.741c0.18-0.54,0.37-1.08,0.55-1.62
				c0.22-0.61,0.44-1.22,0.66-1.83c0.43-1.17,0.86-2.43,1.32-3.73c0.12-0.32,0.24-0.64,0.36-0.96c0.9-2.48,1.94-5.01,3.29-7.11
				c0.35-0.56,0.72-1.08,1.12-1.56c-0.59,0.13-1.19,0.26-1.78,0.39c0.27,0.34,0.48,0.74,0.66,1.17c0.62,1.52,0.76,3.44,1.1,4.87
				c0.12,0.51,0.23,1.01,0.35,1.51c0.08,0.34,0.16,0.67,0.24,1c0.35,1.42,0.7,2.83,1.04,4.25c0.04,0.15,0.07,0.29,0.11,0.44
				c0.06,0.25,0.12,0.51,0.18,0.76c0.88,3.67,1.79,7.34,2.59,11.03c0.18,0.74,0.34,1.49,0.49,2.24c0.63-0.199,1.24-0.398,1.869-0.6"
				/>
			<path fill="none" stroke="#FFE600" stroke-width="2" stroke-miterlimit="1" d="M11.45,19.09c-0.15-0.14-0.29-0.28-0.43-0.42
				c-0.27,0.22-0.54,0.45-0.82,0.68C10.61,19.26,11.03,19.17,11.45,19.09z"/>
			<path fill="none" stroke="#FFE600" stroke-width="2" stroke-miterlimit="1" d="M30.37,35.28h-0.011
				C29.54,34.8,28.75,34.24,28,33.639c-2.32-1.88-4.36-4.27-6.43-6.27c-0.2-0.189-0.4-0.38-0.6-0.57
				c-0.31-0.27-0.62-0.55-0.95-0.818c-1.05-0.9-2.15-1.74-3.26-2.57c-0.47-0.36-0.95-0.72-1.42-1.08c-1.35-1.02-2.67-2.08-3.89-3.24
				"/>
		</g>
	</g>
</g>
<g>
	<path fill="#FFFFFF" d="M7.724,51.862c-0.06-1.128-0.132-2.495-0.132-3.49H7.568c-0.288,0.936-0.612,1.955-1.02,3.07l-1.427,3.922
		H4.33l-1.319-3.85c-0.384-1.151-0.695-2.184-0.923-3.143H2.063c-0.024,1.008-0.084,2.351-0.156,3.574l-0.216,3.466H0.696
		l0.563-8.084h1.332l1.379,3.91c0.336,0.995,0.6,1.883,0.815,2.723H4.81c0.216-0.815,0.503-1.703,0.863-2.723l1.439-3.91h1.331
		l0.504,8.084H7.916L7.724,51.862z"/>
	<path fill="#FFFFFF" d="M14.673,54.021c0,0.504,0.024,0.996,0.084,1.392H13.81l-0.084-0.731h-0.036
		c-0.324,0.456-0.947,0.863-1.775,0.863c-1.175,0-1.775-0.827-1.775-1.667c0-1.403,1.247-2.171,3.49-2.159v-0.119
		c0-0.468-0.132-1.344-1.319-1.332c-0.552,0-1.116,0.156-1.523,0.432l-0.24-0.707c0.479-0.3,1.187-0.504,1.919-0.504
		c1.775,0,2.207,1.211,2.207,2.362V54.021z M13.653,52.45c-1.151-0.024-2.458,0.18-2.458,1.307c0,0.696,0.456,1.008,0.983,1.008
		c0.768,0,1.259-0.479,1.427-0.972c0.036-0.12,0.048-0.24,0.048-0.336V52.45z"/>
	<path fill="#FFFFFF" d="M16.379,51.418c0-0.684-0.012-1.271-0.048-1.811h0.923l0.048,1.151h0.036
		c0.264-0.779,0.912-1.271,1.619-1.271c0.108,0,0.192,0.012,0.288,0.024v0.995c-0.108-0.024-0.216-0.024-0.36-0.024
		c-0.744,0-1.271,0.552-1.416,1.344c-0.024,0.144-0.036,0.324-0.036,0.491v3.095h-1.056V51.418z"/>
	<path fill="#FFFFFF" d="M21.395,52.27h0.024c0.144-0.203,0.336-0.455,0.504-0.659l1.715-2.003h1.259l-2.23,2.387l2.555,3.418
		h-1.295l-1.991-2.782l-0.54,0.6v2.183h-1.043v-8.516h1.043V52.27z"/>
	<path fill="#FFFFFF" d="M28.559,47.437c0.528-0.096,1.296-0.168,2.003-0.168c1.116,0,1.848,0.216,2.339,0.659
		c0.396,0.36,0.636,0.912,0.636,1.548c0,1.056-0.672,1.763-1.511,2.051v0.036c0.611,0.216,0.983,0.791,1.175,1.631
		c0.264,1.127,0.456,1.907,0.624,2.219h-1.079c-0.133-0.24-0.312-0.924-0.528-1.931c-0.239-1.115-0.684-1.535-1.631-1.571h-0.983
		v3.502h-1.044V47.437z M29.603,51.118h1.067c1.115,0,1.823-0.611,1.823-1.535c0-1.043-0.756-1.499-1.859-1.499
		c-0.504,0-0.852,0.036-1.031,0.084V51.118z"/>
	<path fill="#FFFFFF" d="M35.614,52.701c0.024,1.428,0.924,2.016,1.991,2.016c0.756,0,1.224-0.132,1.607-0.3l0.191,0.755
		c-0.372,0.168-1.02,0.372-1.942,0.372c-1.787,0-2.854-1.188-2.854-2.938s1.031-3.118,2.723-3.118c1.906,0,2.398,1.655,2.398,2.723
		c0,0.216-0.012,0.372-0.036,0.491H35.614z M38.709,51.946c0.012-0.66-0.276-1.703-1.463-1.703c-1.08,0-1.535,0.972-1.619,1.703
		H38.709z"/>
	<path fill="#FFFFFF" d="M45.116,54.021c0,0.504,0.024,0.996,0.084,1.392h-0.947l-0.084-0.731h-0.036
		c-0.324,0.456-0.947,0.863-1.775,0.863c-1.175,0-1.774-0.827-1.774-1.667c0-1.403,1.247-2.171,3.49-2.159v-0.119
		c0-0.468-0.132-1.344-1.319-1.332c-0.552,0-1.115,0.156-1.523,0.432l-0.24-0.707c0.48-0.3,1.188-0.504,1.919-0.504
		c1.775,0,2.207,1.211,2.207,2.362V54.021z M44.097,52.45c-1.151-0.024-2.458,0.18-2.458,1.307c0,0.696,0.455,1.008,0.983,1.008
		c0.768,0,1.259-0.479,1.427-0.972c0.036-0.12,0.048-0.24,0.048-0.336V52.45z"/>
	<path fill="#FFFFFF" d="M51.824,46.896v7.017c0,0.516,0.023,1.104,0.048,1.499h-0.936l-0.048-1.008h-0.036
		c-0.312,0.648-1.008,1.14-1.955,1.14c-1.403,0-2.494-1.188-2.494-2.95c-0.013-1.931,1.199-3.106,2.603-3.106
		c0.899,0,1.487,0.42,1.751,0.876h0.023v-3.467H51.824z M50.78,51.97c0-0.132-0.012-0.312-0.048-0.443
		c-0.155-0.66-0.731-1.212-1.523-1.212c-1.091,0-1.738,0.96-1.738,2.231c0,1.175,0.588,2.146,1.715,2.146
		c0.708,0,1.355-0.479,1.547-1.259c0.036-0.145,0.048-0.288,0.048-0.456V51.97z"/>
</g>
</svg>
