<?xml version="1.0" encoding="utf-8"?>
<!-- Generator: Adobe Illustrator 14.0.0, SVG Export Plug-In . SVG Version: 6.00 Build 43363)  -->
<!DOCTYPE svg PUBLIC "-//W3C//DTD SVG 1.1//EN" "http://www.w3.org/Graphics/SVG/1.1/DTD/svg11.dtd">
<svg version="1.1" id="Layer_1" xmlns="http://www.w3.org/2000/svg" xmlns:xlink="http://www.w3.org/1999/xlink" x="0px" y="0px"
	 width="50px" height="50px" viewBox="0 0 50 50" enable-background="new 0 0 50 50" xml:space="preserve">
<g>
	<g>
		<path fill="#E6E6E6" stroke="#E6E6E6" stroke-width="2" stroke-miterlimit="1" d="M27.502,13.222
			C14.678,10.728,1.59,33.807,17.114,37.762c5.55,1.414,14.542,0.588,18.541-4.188c5.763-6.879-0.227-14.002-6.313-17.57
			c-0.518-0.303-2.309,0.459-1.545,0.907c3.981,2.333,7.003,4.592,7.976,9.335c1.65,8.07-8.393,11.754-14.811,11.079
			c-5.407-0.568-9.759-3.654-8.797-9.472c1.081-6.534,6.07-15.192,14.146-13.623C26.891,14.346,28.585,13.432,27.502,13.222
			L27.502,13.222z"/>
	</g>
</g>
<g>
	<g>
		<path fill="#E6E6E6" stroke="#E6E6E6" stroke-width="2" stroke-miterlimit="1" d="M24.008,19.613
			c1.424,0.203,2.579,1.193,3.493,2.242c0.543,0.623,2.386-0.128,1.774-0.827c-1.217-1.398-2.709-2.476-4.58-2.742
			C23.798,18.158,22.708,19.428,24.008,19.613L24.008,19.613z"/>
	</g>
</g>
<g>
	<path fill="#FFFFFF" d="M3.996,49.148c-0.05-0.939-0.11-2.079-0.11-2.909h-0.02c-0.24,0.78-0.51,1.63-0.85,2.559l-1.189,3.269
		h-0.66l-1.099-3.208c-0.32-0.96-0.58-1.819-0.77-2.619h-0.02c-0.02,0.84-0.07,1.959-0.13,2.979l-0.18,2.889h-0.83l0.47-6.736h1.109
		l1.149,3.258c0.28,0.83,0.5,1.569,0.68,2.27h0.02c0.18-0.68,0.42-1.42,0.72-2.27l1.199-3.258h1.109l0.42,6.736h-0.86L3.996,49.148z
		"/>
	<path fill="#FFFFFF" d="M9.787,50.947c0,0.42,0.02,0.829,0.07,1.159h-0.79l-0.07-0.609h-0.03c-0.27,0.38-0.79,0.72-1.479,0.72
		c-0.979,0-1.479-0.69-1.479-1.39c0-1.169,1.04-1.809,2.909-1.799v-0.101c0-0.39-0.11-1.119-1.1-1.109
		c-0.459,0-0.929,0.13-1.269,0.36l-0.2-0.59c0.4-0.25,0.99-0.42,1.599-0.42c1.479,0,1.839,1.01,1.839,1.969V50.947z M8.938,49.638
		c-0.959-0.02-2.049,0.15-2.049,1.09c0,0.579,0.379,0.839,0.819,0.839c0.64,0,1.049-0.399,1.189-0.81
		c0.03-0.1,0.04-0.199,0.04-0.279V49.638z"/>
	<path fill="#FFFFFF" d="M11.209,48.778c0-0.569-0.01-1.06-0.04-1.509h0.77l0.04,0.959h0.03c0.22-0.649,0.759-1.06,1.349-1.06
		c0.09,0,0.16,0.01,0.24,0.021v0.829c-0.09-0.02-0.18-0.02-0.3-0.02c-0.62,0-1.06,0.459-1.179,1.119c-0.02,0.12-0.03,0.27-0.03,0.41
		v2.578h-0.879V48.778z"/>
	<path fill="#FFFFFF" d="M15.388,49.488h0.02c0.12-0.17,0.28-0.38,0.42-0.55l1.429-1.669h1.049l-1.859,1.988l2.129,2.849h-1.08
		l-1.659-2.318l-0.45,0.499v1.819h-0.87v-7.096h0.87V49.488z"/>
	<path fill="#FFFFFF" d="M22.228,45.37v3.998c0,1.499,0.67,2.139,1.569,2.139c0.989,0,1.639-0.66,1.639-2.139V45.37h0.88v3.938
		c0,2.069-1.09,2.909-2.549,2.909c-1.379,0-2.419-0.78-2.419-2.879V45.37H22.228z"/>
	<path fill="#FFFFFF" d="M27.799,48.578c0-0.51-0.01-0.909-0.041-1.309h0.78l0.05,0.799h0.02c0.24-0.449,0.801-0.899,1.6-0.899
		c0.67,0,1.709,0.4,1.709,2.059v2.879h-0.879v-2.788c0-0.78-0.29-1.43-1.119-1.43c-0.57,0-1.02,0.41-1.18,0.899
		c-0.041,0.11-0.061,0.26-0.061,0.41v2.908h-0.879V48.578z"/>
	<path fill="#FFFFFF" d="M33.349,48.778c0-0.569-0.01-1.06-0.04-1.509h0.77l0.04,0.959h0.03c0.22-0.649,0.76-1.06,1.35-1.06
		c0.09,0,0.159,0.01,0.239,0.021v0.829c-0.09-0.02-0.18-0.02-0.3-0.02c-0.619,0-1.06,0.459-1.18,1.119
		c-0.02,0.12-0.029,0.27-0.029,0.41v2.578h-0.88V48.778z"/>
	<path fill="#FFFFFF" d="M37.008,49.848c0.021,1.189,0.77,1.679,1.66,1.679c0.629,0,1.02-0.109,1.339-0.249l0.159,0.629
		c-0.309,0.141-0.85,0.311-1.619,0.311c-1.488,0-2.378-0.99-2.378-2.449s0.859-2.599,2.269-2.599c1.59,0,1.999,1.38,1.999,2.269
		c0,0.181-0.01,0.311-0.03,0.41H37.008z M39.587,49.218c0.011-0.55-0.229-1.419-1.22-1.419c-0.898,0-1.279,0.81-1.349,1.419H39.587z
		"/>
	<path fill="#FFFFFF" d="M44.927,50.947c0,0.42,0.021,0.829,0.069,1.159h-0.789l-0.07-0.609h-0.029
		c-0.271,0.38-0.79,0.72-1.479,0.72c-0.979,0-1.479-0.69-1.479-1.39c0-1.169,1.039-1.809,2.908-1.799v-0.101
		c0-0.39-0.109-1.119-1.1-1.109c-0.459,0-0.929,0.13-1.269,0.36l-0.2-0.59c0.4-0.25,0.99-0.42,1.6-0.42
		c1.479,0,1.839,1.01,1.839,1.969V50.947z M44.077,49.638c-0.96-0.02-2.049,0.15-2.049,1.09c0,0.579,0.38,0.839,0.819,0.839
		c0.64,0,1.049-0.399,1.189-0.81c0.029-0.1,0.04-0.199,0.04-0.279V49.638z"/>
	<path fill="#FFFFFF" d="M50.516,45.011v5.847c0,0.43,0.021,0.919,0.04,1.249h-0.779l-0.04-0.84h-0.03
		c-0.26,0.54-0.839,0.95-1.629,0.95c-1.169,0-2.079-0.99-2.079-2.459c-0.01-1.609,1-2.589,2.17-2.589
		c0.749,0,1.238,0.35,1.458,0.729h0.021v-2.888H50.516z M49.646,49.238c0-0.11-0.01-0.26-0.04-0.37c-0.13-0.55-0.61-1.01-1.27-1.01
		c-0.909,0-1.448,0.8-1.448,1.859c0,0.979,0.489,1.789,1.429,1.789c0.589,0,1.129-0.399,1.289-1.05c0.03-0.119,0.04-0.239,0.04-0.38
		V49.238z"/>
</g>
</svg>
