<?xml version="1.0" encoding="utf-8"?>
<!-- Generator: Adobe Illustrator 14.0.0, SVG Export Plug-In . SVG Version: 6.00 Build 43363)  -->
<!DOCTYPE svg PUBLIC "-//W3C//DTD SVG 1.1//EN" "http://www.w3.org/Graphics/SVG/1.1/DTD/svg11.dtd">
<svg version="1.1" id="Layer_1" xmlns="http://www.w3.org/2000/svg" xmlns:xlink="http://www.w3.org/1999/xlink" x="0px" y="0px"
	 width="50px" height="50px" viewBox="0 0 50 50" enable-background="new 0 0 50 50" xml:space="preserve">
<g>
	<g id="XMLID_1_">
		<g>
			<path fill="#FFE600" d="M16.94,18.12c-0.27,0.75-0.55,1.49-0.83,2.2c-0.27,0.66-0.52,1.33-0.77,2.01
				c-1.35-1.02-2.67-2.08-3.89-3.24C13.26,18.71,15.1,18.4,16.94,18.12z"/>
			<path fill="#FFE600" d="M18.56,26.939c0.09,0.08,0.18,0.16,0.27,0.24c-1.73,1.779-3.35,3.649-4.85,5.59
				c0.64-2.609,1.39-5.189,2.23-7.741C17.02,25.65,17.8,26.28,18.56,26.939z"/>
			<path fill="#FFE600" d="M28,33.641c-2.32-1.881-4.36-4.271-6.43-6.271c-0.2-0.19-0.4-0.38-0.6-0.57c1.21-1.22,2.45-2.4,3.73-3.57
				c0.23-0.21,0.47-0.42,0.71-0.62C26.29,26.28,27.2,29.95,28,33.641z"/>
			<path fill="#FFE600" d="M26.23,16.85c0.898-0.14,1.789-0.3,2.68-0.44c3.398-0.56,2.84,0.27,0.58,1.78
				c-0.891,0.6-1.771,1.22-2.631,1.87c-0.051-0.17-0.09-0.35-0.129-0.52C26.54,18.73,26.38,17.82,26.23,16.85z"/>
			<path fill="#FFE600" d="M23.49,14.65c0.12,0.51,0.23,1.01,0.35,1.51c-1.58,0.22-3.16,0.47-4.74,0.73
				c0.9-2.48,1.94-5.01,3.29-7.11C23.01,11.3,23.15,13.22,23.49,14.65z"/>
			<path fill="#FFE600" d="M24.08,17.16c0.35,1.42,0.7,2.83,1.04,4.25c-1.77,1.43-3.48,2.95-5.1,4.57c-1.05-0.9-2.15-1.74-3.26-2.57
				c0.22-0.61,0.44-1.22,0.66-1.83c0.43-1.17,0.86-2.43,1.32-3.73c1.66-0.23,3.32-0.43,4.97-0.64
				C23.83,17.2,23.96,17.18,24.08,17.16z"/>
			<path fill="#FFE600" d="M26.08,15.86c2.9-0.37,5.8-0.67,8.65-0.9c0.188-0.02,0.81,0.07,0.479,0.38
				c-2.439,2.24-5.37,3.91-8.061,5.9c-0.109-0.39-0.199-0.79-0.289-1.18c0.858-0.65,1.738-1.27,2.629-1.87
				c2.261-1.51,2.82-2.34-0.579-1.78c-0.892,0.14-1.78,0.3-2.681,0.44C26.18,16.53,26.12,16.19,26.08,15.86z"/>
			<path fill="#FFE600" d="M28.49,35.88c0.63-0.2,1.24-0.399,1.869-0.6C29.54,34.8,28.75,34.24,28,33.639
				c-0.8-3.688-1.71-7.358-2.59-11.03c0.561-0.48,1.14-0.93,1.74-1.37c1.129,4.7,2.3,9.399,3.279,14.13
				c0.119,0.58-1.541,0.79-1.881,0.59c-0.029-0.02-0.05-0.029-0.08-0.05L28.49,35.88z"/>
			<path fill="#FFE600" d="M30.359,35.28c-0.629,0.2-1.239,0.399-1.869,0.6c-0.15-0.75-0.311-1.5-0.49-2.239
				C28.75,34.24,29.54,34.8,30.359,35.28z"/>
			<path fill="#FFE600" d="M26.73,19.54c0.039,0.17,0.078,0.35,0.129,0.52c-0.59,0.44-1.17,0.89-1.739,1.35
				c-0.34-1.42-0.69-2.83-1.04-4.25c0.72-0.09,1.439-0.2,2.15-0.31C26.38,17.82,26.54,18.73,26.73,19.54z"/>
			<path fill="#FFE600" d="M26.08,15.86c0.04,0.33,0.1,0.67,0.15,0.99c-0.711,0.11-1.432,0.22-2.15,0.31
				c-0.08-0.33-0.16-0.66-0.24-1C24.59,16.06,25.33,15.96,26.08,15.86z"/>
			<path fill="#FFE600" d="M27.15,21.24c-0.602,0.44-1.182,0.89-1.74,1.37c-0.06-0.25-0.12-0.51-0.18-0.76
				c-0.04-0.15-0.07-0.29-0.11-0.44c0.569-0.46,1.149-0.91,1.739-1.35C26.95,20.45,27.04,20.85,27.15,21.24z"/>
			<path fill="#FFE600" d="M20.02,25.98c1.62-1.622,3.33-3.142,5.1-4.57c0.04,0.15,0.07,0.29,0.11,0.44
				c0.06,0.25,0.12,0.51,0.18,0.76c-0.24,0.2-0.48,0.41-0.71,0.62c-1.28,1.17-2.52,2.35-3.73,3.57
				C20.66,26.53,20.35,26.25,20.02,25.98z"/>
			<path fill="#FFE600" d="M28,33.641c0.18,0.739,0.34,1.489,0.49,2.239l-0.021,0.03c-3.33-1.94-5.91-5.16-8.71-7.86
				c0.4-0.42,0.8-0.84,1.21-1.25c0.2,0.19,0.4,0.38,0.6,0.57C23.64,29.37,25.68,31.76,28,33.641z"/>
			<path fill="#FFE600" d="M24.08,17.16c-0.12,0.02-0.25,0.04-0.37,0.05c-1.65,0.21-3.31,0.41-4.97,0.64
				c0.12-0.32,0.24-0.64,0.36-0.96c1.58-0.26,3.16-0.51,4.74-0.73C23.92,16.5,24,16.83,24.08,17.16z"/>
			<path fill="#FFE600" d="M21.73,8.61c0.59-0.13,1.19-0.26,1.78-0.39c-0.4,0.48-0.77,1-1.12,1.561C22.21,9.35,22,8.95,21.73,8.61z"
				/>
			<path fill="#FFE600" d="M23.54,7.92c1.52,1.94,2.069,5.06,2.54,7.94c-0.75,0.1-1.49,0.2-2.24,0.3c-0.12-0.5-0.23-1-0.35-1.51
				c-0.34-1.43-0.48-3.35-1.1-4.87c0.35-0.561,0.72-1.08,1.12-1.561c-0.59,0.13-1.19,0.26-1.78,0.39l-0.13-0.1
				c0.04-0.07,0.1-0.13,0.15-0.2C21.99,8.03,23.24,7.54,23.54,7.92z"/>
			<path fill="#FFE600" d="M20.02,25.98c0.33,0.27,0.64,0.55,0.95,0.818c-0.41,0.41-0.81,0.83-1.21,1.25
				c-0.31-0.3-0.62-0.59-0.93-0.869C19.22,26.77,19.62,26.37,20.02,25.98z"/>
			<path fill="#FFE600" d="M22.39,9.78c-1.35,2.1-2.39,4.63-3.29,7.11c-0.61,0.1-1.22,0.21-1.82,0.32c1.14-3.06,2.39-6.28,4.32-8.7
				l0.13,0.1C22,8.95,22.21,9.35,22.39,9.78z"/>
			<path fill="#FFE600" d="M19.76,28.05c-1.76,1.851-3.43,3.79-4.97,5.86c-0.15,0.21-0.71,0.37-1.18,0.41
				c0.12-0.521,0.24-1.03,0.37-1.551c1.5-1.939,3.12-3.811,4.85-5.59C19.14,27.46,19.45,27.75,19.76,28.05z"/>
			<path fill="#FFE600" d="M17.28,17.21c0.6-0.11,1.21-0.22,1.82-0.32c-0.12,0.32-0.24,0.64-0.36,0.96c-0.6,0.09-1.2,0.18-1.8,0.27
				C17.06,17.82,17.17,17.51,17.28,17.21z"/>
			<path fill="#FFE600" d="M18.74,17.85c-0.46,1.3-0.89,2.56-1.32,3.73c-0.22,0.61-0.44,1.22-0.66,1.83
				c-0.47-0.36-0.95-0.72-1.42-1.08c0.25-0.68,0.5-1.35,0.77-2.01c0.28-0.71,0.56-1.45,0.83-2.2
				C17.54,18.03,18.14,17.94,18.74,17.85z"/>
			<path fill="#FFE600" d="M16.76,23.41c1.11,0.83,2.21,1.67,3.26,2.57c-0.4,0.39-0.8,0.789-1.19,1.199
				c-0.09-0.08-0.18-0.16-0.27-0.24c-0.76-0.659-1.54-1.289-2.35-1.911C16.39,24.49,16.58,23.95,16.76,23.41z"/>
			<path fill="#FFE600" d="M16.76,23.41c-0.18,0.54-0.37,1.08-0.55,1.62c-0.48-0.36-0.96-0.73-1.45-1.09
				c0.19-0.54,0.38-1.08,0.58-1.61C15.81,22.69,16.29,23.05,16.76,23.41z"/>
			<path fill="#FFE600" d="M13.03,34.01c0.31-0.42,0.62-0.83,0.95-1.24c-0.13,0.521-0.25,1.03-0.37,1.551
				C13.17,34.359,12.82,34.28,13.03,34.01z"/>
			<path fill="#FFE600" d="M13.03,34.01c-0.21,0.271,0.14,0.352,0.58,0.311c-0.23,1.021-0.45,2.029-0.65,3.051
				c-0.1,0.51-2.01,0.84-1.9,0.311c0.9-4.631,2.13-9.261,3.7-13.741c0.49,0.36,0.97,0.73,1.45,1.09c-0.84,2.55-1.59,5.13-2.23,7.74
				C13.65,33.18,13.34,33.59,13.03,34.01z"/>
			<path fill="#FFE600" d="M11.02,18.67c0.14,0.14,0.28,0.28,0.43,0.42c-0.42,0.08-0.84,0.17-1.25,0.26
				C10.48,19.12,10.75,18.89,11.02,18.67z"/>
			<path fill="#FFE600" d="M11.45,19.09c1.22,1.16,2.54,2.22,3.89,3.24c-0.2,0.53-0.39,1.07-0.58,1.61
				c-1.93-1.46-3.87-2.91-5.55-4.59c-0.32-0.32,0.64-0.65,0.81-0.69c2.38-0.53,4.81-1.02,7.26-1.45c-0.11,0.3-0.22,0.61-0.34,0.91
				C15.1,18.4,13.26,18.71,11.45,19.09c-0.15-0.14-0.29-0.28-0.43-0.42c-0.27,0.22-0.54,0.45-0.82,0.68
				C10.61,19.26,11.03,19.17,11.45,19.09z"/>
		</g>
		<g>
			<path fill="none" stroke="#FFE600" stroke-width="2" stroke-miterlimit="1" d="M11.45,19.09c1.81-0.38,3.65-0.69,5.49-0.97
				c0.6-0.09,1.2-0.18,1.8-0.27c1.66-0.23,3.32-0.43,4.97-0.64c0.12-0.01,0.25-0.03,0.37-0.05c0.72-0.09,1.439-0.2,2.15-0.31
				c0.898-0.14,1.789-0.3,2.68-0.44c3.398-0.56,2.84,0.27,0.58,1.78c-0.891,0.6-1.771,1.22-2.631,1.87
				c-0.59,0.44-1.17,0.89-1.739,1.35c-1.77,1.43-3.48,2.95-5.1,4.57c-0.4,0.39-0.8,0.789-1.19,1.199
				c-1.73,1.779-3.35,3.649-4.85,5.59c-0.33,0.41-0.64,0.819-0.95,1.239c-0.21,0.271,0.14,0.351,0.58,0.312
				c0.47-0.04,1.03-0.2,1.18-0.41c1.54-2.07,3.21-4.01,4.97-5.86c0.4-0.42,0.8-0.84,1.21-1.25c1.21-1.22,2.45-2.4,3.73-3.57
				c0.23-0.21,0.47-0.42,0.71-0.62c0.561-0.48,1.14-0.93,1.74-1.37c2.688-1.99,5.619-3.66,8.06-5.9c0.33-0.31-0.29-0.4-0.479-0.38
				c-2.851,0.23-5.75,0.53-8.649,0.9c-0.75,0.1-1.49,0.2-2.24,0.3c-1.58,0.22-3.16,0.47-4.74,0.73c-0.61,0.1-1.22,0.21-1.82,0.32
				c-2.45,0.43-4.88,0.92-7.26,1.45c-0.17,0.04-1.13,0.37-0.81,0.69c1.68,1.68,3.62,3.13,5.55,4.59c0.49,0.36,0.97,0.73,1.45,1.09
				c0.81,0.62,1.59,1.25,2.35,1.911c0.09,0.078,0.18,0.158,0.27,0.238c0.31,0.28,0.62,0.57,0.93,0.87c2.8,2.7,5.38,5.921,8.709,7.86
				c0.03,0.02,0.051,0.029,0.08,0.05c0.34,0.2,2-0.01,1.881-0.59c-0.979-4.729-2.149-9.431-3.279-14.13
				c-0.11-0.39-0.2-0.79-0.291-1.18c-0.051-0.17-0.09-0.35-0.129-0.52c-0.19-0.81-0.352-1.72-0.5-2.69
				c-0.051-0.32-0.11-0.66-0.15-0.99c-0.471-2.88-1.02-6-2.54-7.94c-0.3-0.38-1.55,0.11-1.79,0.39c-0.05,0.07-0.11,0.13-0.15,0.2
				c-1.93,2.42-3.18,5.64-4.32,8.7c-0.11,0.3-0.22,0.61-0.34,0.91c-0.27,0.75-0.55,1.49-0.83,2.2c-0.27,0.66-0.52,1.33-0.77,2.01
				c-0.2,0.53-0.39,1.07-0.58,1.61c-1.57,4.48-2.8,9.11-3.7,13.74c-0.11,0.53,1.8,0.2,1.9-0.31c0.2-1.021,0.42-2.03,0.65-3.05
				c0.12-0.521,0.24-1.03,0.37-1.551c0.64-2.609,1.39-5.189,2.23-7.741c0.18-0.54,0.37-1.08,0.55-1.62
				c0.22-0.61,0.44-1.22,0.66-1.83c0.43-1.17,0.86-2.43,1.32-3.73c0.12-0.32,0.24-0.64,0.36-0.96c0.9-2.48,1.94-5.01,3.29-7.11
				c0.35-0.56,0.72-1.08,1.12-1.56c-0.59,0.13-1.19,0.26-1.78,0.39c0.27,0.34,0.48,0.74,0.66,1.17c0.62,1.52,0.76,3.44,1.1,4.87
				c0.12,0.51,0.23,1.01,0.35,1.51c0.08,0.34,0.16,0.67,0.24,1c0.35,1.42,0.7,2.83,1.04,4.25c0.04,0.15,0.07,0.29,0.11,0.44
				c0.06,0.25,0.12,0.51,0.18,0.76c0.88,3.67,1.79,7.34,2.59,11.03c0.18,0.74,0.34,1.49,0.49,2.24c0.63-0.199,1.24-0.398,1.869-0.6"
				/>
			<path fill="none" stroke="#FFE600" stroke-width="2" stroke-miterlimit="1" d="M11.45,19.09c-0.15-0.14-0.29-0.28-0.43-0.42
				c-0.27,0.22-0.54,0.45-0.82,0.68C10.61,19.26,11.03,19.17,11.45,19.09z"/>
			<path fill="none" stroke="#FFE600" stroke-width="2" stroke-miterlimit="1" d="M30.37,35.28h-0.011
				C29.54,34.8,28.75,34.24,28,33.639c-2.32-1.88-4.36-4.27-6.43-6.27c-0.2-0.189-0.4-0.38-0.6-0.57
				c-0.31-0.27-0.62-0.55-0.95-0.818c-1.05-0.9-2.15-1.74-3.26-2.57c-0.47-0.36-0.95-0.72-1.42-1.08c-1.35-1.02-2.67-2.08-3.89-3.24
				"/>
		</g>
	</g>
</g>
<g>
	<path fill="#FFFFFF" d="M14.519,52.853c0.39,0.25,0.95,0.439,1.549,0.439c0.89,0,1.409-0.47,1.409-1.148
		c0-0.62-0.36-0.99-1.269-1.33c-1.1-0.399-1.779-0.979-1.779-1.919c0-1.049,0.87-1.829,2.179-1.829c0.68,0,1.189,0.16,1.479,0.33
		l-0.24,0.71c-0.21-0.13-0.66-0.32-1.27-0.32c-0.919,0-1.27,0.55-1.27,1.01c0,0.63,0.41,0.939,1.339,1.299
		c1.14,0.44,1.709,0.99,1.709,1.979c0,1.039-0.759,1.949-2.349,1.949c-0.649,0-1.359-0.2-1.719-0.44L14.519,52.853z"/>
	<path fill="#FFFFFF" d="M20.559,47.915v1.16h1.259v0.669h-1.259v2.608c0,0.601,0.17,0.939,0.66,0.939c0.24,0,0.38-0.02,0.51-0.06
		l0.04,0.67c-0.17,0.06-0.44,0.12-0.78,0.12c-0.41,0-0.74-0.141-0.949-0.37c-0.24-0.27-0.34-0.699-0.34-1.27v-2.639h-0.75v-0.669
		h0.75v-0.9L20.559,47.915z"/>
	<path fill="#FFFFFF" d="M26.207,52.753c0,0.42,0.021,0.829,0.07,1.159h-0.79l-0.07-0.609h-0.03c-0.27,0.38-0.79,0.72-1.479,0.72
		c-0.979,0-1.479-0.69-1.479-1.39c0-1.169,1.04-1.809,2.909-1.799v-0.101c0-0.39-0.11-1.119-1.1-1.109
		c-0.459,0-0.929,0.13-1.269,0.36l-0.2-0.59c0.4-0.25,0.99-0.42,1.599-0.42c1.479,0,1.839,1.01,1.839,1.969V52.753z M25.358,51.443
		c-0.959-0.02-2.049,0.15-2.049,1.09c0,0.579,0.379,0.839,0.819,0.839c0.64,0,1.049-0.399,1.189-0.81
		c0.03-0.1,0.04-0.199,0.04-0.279V51.443z"/>
	<path fill="#FFFFFF" d="M27.629,50.584c0-0.569-0.01-1.06-0.04-1.509h0.77l0.04,0.959h0.03c0.22-0.649,0.759-1.06,1.349-1.06
		c0.09,0,0.16,0.01,0.24,0.021v0.829c-0.09-0.02-0.18-0.02-0.3-0.02c-0.62,0-1.06,0.459-1.179,1.119
		c-0.021,0.12-0.031,0.27-0.031,0.41v2.578h-0.879V50.584z"/>
</g>
</svg>
