<?xml version="1.0" encoding="utf-8"?>
<!-- Generator: Adobe Illustrator 14.0.0, SVG Export Plug-In . SVG Version: 6.00 Build 43363)  -->
<!DOCTYPE svg PUBLIC "-//W3C//DTD SVG 1.1//EN" "http://www.w3.org/Graphics/SVG/1.1/DTD/svg11.dtd">
<svg version="1.1" id="Layer_1" xmlns="http://www.w3.org/2000/svg" xmlns:xlink="http://www.w3.org/1999/xlink" x="0px" y="0px"
	 width="50px" height="50px" viewBox="0 0 50 50" enable-background="new 0 0 50 50" xml:space="preserve">
<g>
	<g>
		<path fill="#E6E6E6" stroke="#E6E6E6" stroke-width="2" stroke-miterlimit="1" d="M16.875,10.748
			c0.793,1.221,1.154,2.697,1.857,3.98c0.771,1.405,1.749,2.697,2.712,3.973c0.469,0.621,2.324-0.087,1.78-0.808
			c-0.969-1.284-1.902-2.582-2.713-3.973c-0.745-1.278-1.051-2.738-1.857-3.979C18.237,9.296,16.375,9.978,16.875,10.748
			L16.875,10.748z"/>
	</g>
</g>
<g>
	<g>
		<path fill="#E6E6E6" stroke="#E6E6E6" stroke-width="2" stroke-miterlimit="1" d="M25.842,19.827
			c4.145-2.697,8.45-5.108,12.819-7.418c1.149-0.608-0.571-0.898-1.197-0.567c-4.368,2.311-8.675,4.722-12.819,7.418
			C23.548,19.973,25.229,20.225,25.842,19.827L25.842,19.827z"/>
	</g>
</g>
<g>
	<g>
		<path fill="#E6E6E6" stroke="#E6E6E6" stroke-width="2" stroke-miterlimit="1" d="M27.824,24.324
			c2.47,2.22,4.999,4.267,7.963,5.794c0.812,0.419,2.208-0.763,1.107-1.328c-2.821-1.455-5.238-3.489-7.586-5.6
			C28.65,22.599,26.98,23.565,27.824,24.324L27.824,24.324z"/>
	</g>
</g>
<g>
	<g>
		<path fill="#E6E6E6" stroke="#E6E6E6" stroke-width="2" stroke-miterlimit="1" d="M21.977,24.769
			c-0.916,1.398-1.347,2.98-1.83,4.566c-0.818,2.692-1.792,5.34-2.632,8.026c-0.191,0.611,1.735,0.341,1.925-0.27
			c0.68-2.177,1.392-4.343,2.122-6.503c0.657-1.94,1.065-4.096,2.201-5.83C24.225,24.058,22.294,24.284,21.977,24.769L21.977,24.769
			z"/>
	</g>
</g>
<g>
	<g>
		<path fill="#E6E6E6" stroke="#E6E6E6" stroke-width="2" stroke-miterlimit="1" d="M19.387,21.388
			c-4.052,1.377-7.875,3.642-11.87,5.221c-1.278,0.507-0.067,0.759,0.675,0.466c3.992-1.58,7.826-3.849,11.87-5.223
			C21.366,21.409,20.131,21.135,19.387,21.388L19.387,21.388z"/>
	</g>
</g>
<g>
	<g>
		<path fill="#E6E6E6" stroke="#E6E6E6" stroke-width="2" stroke-miterlimit="1" d="M25.514,10.668
			c-0.178,0.534-0.354,1.068-0.534,1.603c-0.154,0.463,0.598,0.597,0.875,0.572c0.474-0.042,0.92-0.284,1.074-0.746
			c0.178-0.534,0.354-1.068,0.531-1.603c0.154-0.463-0.598-0.598-0.876-0.572C26.115,9.964,25.668,10.206,25.514,10.668
			L25.514,10.668z"/>
	</g>
</g>
<g>
	<g>
		<path fill="#E6E6E6" stroke="#E6E6E6" stroke-width="2" stroke-miterlimit="1" d="M10.476,17.784c0.574,0,1.147,0,1.721,0
			c0.415,0,0.996-0.168,1.287-0.481c0.312-0.335-0.271-0.393-0.477-0.393c-0.574,0-1.147,0-1.721,0
			c-0.415,0-0.996,0.168-1.287,0.481C9.688,17.727,10.27,17.784,10.476,17.784L10.476,17.784z"/>
	</g>
</g>
<g>
	<g>
		<path fill="#E6E6E6" stroke="#E6E6E6" stroke-width="2" stroke-miterlimit="1" d="M13.378,32.168
			c0.444-0.4,0.808-0.871,1.192-1.326c0.309-0.365-0.26-0.566-0.525-0.574c-0.471-0.013-0.968,0.166-1.274,0.529
			c-0.305,0.361-0.591,0.729-0.943,1.047c-0.303,0.273-0.216,0.606,0.185,0.69C12.463,32.628,13.035,32.477,13.378,32.168
			L13.378,32.168z"/>
	</g>
</g>
<g>
	<g>
		<path fill="#E6E6E6" stroke="#E6E6E6" stroke-width="2" stroke-miterlimit="1" d="M29.236,32.341
			c-0.442-0.769-0.83-1.565-1.314-2.312c-0.339-0.521-2.217,0.102-1.797,0.746c0.436,0.67,0.781,1.392,1.18,2.082
			C27.67,33.492,29.521,32.838,29.236,32.341L29.236,32.341z"/>
	</g>
</g>
<g>
	<g>
		<path fill="#E6E6E6" stroke="#E6E6E6" stroke-width="2" stroke-miterlimit="1" d="M39.682,20.208
			c-1.17,0.125-2.326,0.343-3.502,0.416c-0.354,0.022-0.996,0.249-1.1,0.647c-0.112,0.435,0.597,0.413,0.83,0.398
			c1.175-0.072,2.331-0.29,3.501-0.416c0.356-0.039,0.993-0.237,1.101-0.647C40.621,20.178,39.916,20.182,39.682,20.208
			L39.682,20.208z"/>
	</g>
</g>
<g>
	<path fill="#FFFFFF" d="M9.306,49.542c-0.05-0.939-0.11-2.079-0.11-2.909h-0.02c-0.24,0.78-0.51,1.63-0.85,2.559L7.137,52.46h-0.66
		l-1.099-3.208c-0.32-0.96-0.58-1.819-0.77-2.619h-0.02c-0.02,0.84-0.07,1.959-0.13,2.979L4.278,52.5h-0.83l0.47-6.736h1.109
		l1.149,3.258c0.28,0.83,0.5,1.569,0.68,2.27h0.02c0.18-0.68,0.42-1.42,0.72-2.27l1.199-3.258h1.109l0.42,6.736h-0.86L9.306,49.542z
		"/>
	<path fill="#FFFFFF" d="M15.097,51.341c0,0.42,0.02,0.829,0.07,1.159h-0.79l-0.07-0.609h-0.03c-0.27,0.38-0.79,0.72-1.479,0.72
		c-0.979,0-1.479-0.69-1.479-1.39c0-1.169,1.04-1.809,2.909-1.799v-0.101c0-0.39-0.11-1.119-1.1-1.109
		c-0.459,0-0.929,0.13-1.269,0.36l-0.2-0.59c0.4-0.25,0.99-0.42,1.599-0.42c1.479,0,1.839,1.01,1.839,1.969V51.341z M14.247,50.031
		c-0.959-0.02-2.049,0.15-2.049,1.09c0,0.579,0.379,0.839,0.819,0.839c0.64,0,1.049-0.399,1.189-0.81
		c0.03-0.1,0.04-0.199,0.04-0.279V50.031z"/>
	<path fill="#FFFFFF" d="M16.519,49.172c0-0.569-0.01-1.06-0.04-1.509h0.77l0.04,0.959h0.03c0.22-0.649,0.759-1.06,1.349-1.06
		c0.09,0,0.16,0.01,0.24,0.021v0.829c-0.09-0.02-0.18-0.02-0.3-0.02c-0.62,0-1.06,0.459-1.179,1.119c-0.02,0.12-0.03,0.27-0.03,0.41
		V52.5h-0.879V49.172z"/>
	<path fill="#FFFFFF" d="M20.698,49.882h0.02c0.12-0.17,0.28-0.38,0.42-0.55l1.429-1.669h1.049l-1.859,1.988l2.129,2.849h-1.08
		l-1.659-2.318l-0.45,0.499V52.5h-0.87v-7.096h0.87V49.882z"/>
	<path fill="#FFFFFF" d="M26.668,45.854c0.439-0.08,1.08-0.14,1.67-0.14c0.929,0,1.539,0.18,1.948,0.55
		c0.33,0.3,0.53,0.76,0.53,1.289c0,0.88-0.561,1.469-1.26,1.709v0.03c0.51,0.18,0.82,0.659,0.979,1.359
		c0.22,0.939,0.38,1.589,0.52,1.849h-0.899c-0.109-0.2-0.26-0.77-0.439-1.609c-0.2-0.93-0.57-1.279-1.359-1.309h-0.82V52.5h-0.869
		V45.854z M27.537,48.922h0.891c0.93,0,1.519-0.51,1.519-1.279c0-0.869-0.63-1.249-1.549-1.249c-0.42,0-0.71,0.03-0.86,0.069V48.922
		z"/>
	<path fill="#FFFFFF" d="M32.548,50.241c0.021,1.189,0.77,1.679,1.659,1.679c0.63,0,1.02-0.109,1.34-0.249l0.159,0.629
		c-0.31,0.141-0.85,0.311-1.619,0.311c-1.489,0-2.378-0.99-2.378-2.449s0.859-2.599,2.268-2.599c1.59,0,2,1.38,2,2.269
		c0,0.181-0.011,0.311-0.03,0.41H32.548z M35.127,49.611c0.01-0.55-0.23-1.419-1.22-1.419c-0.899,0-1.279,0.81-1.349,1.419H35.127z"
		/>
	<path fill="#FFFFFF" d="M40.467,51.341c0,0.42,0.02,0.829,0.069,1.159h-0.79l-0.069-0.609h-0.03c-0.27,0.38-0.789,0.72-1.479,0.72
		c-0.98,0-1.48-0.69-1.48-1.39c0-1.169,1.04-1.809,2.909-1.799v-0.101c0-0.39-0.11-1.119-1.1-1.109c-0.46,0-0.929,0.13-1.269,0.36
		l-0.201-0.59c0.4-0.25,0.99-0.42,1.6-0.42c1.479,0,1.84,1.01,1.84,1.969V51.341z M39.617,50.031c-0.96-0.02-2.049,0.15-2.049,1.09
		c0,0.579,0.379,0.839,0.818,0.839c0.641,0,1.05-0.399,1.189-0.81c0.03-0.1,0.041-0.199,0.041-0.279V50.031z"/>
	<path fill="#FFFFFF" d="M46.057,45.404v5.847c0,0.43,0.02,0.919,0.039,1.249h-0.779l-0.04-0.84h-0.03
		c-0.26,0.54-0.84,0.95-1.629,0.95c-1.17,0-2.078-0.99-2.078-2.459c-0.011-1.609,0.999-2.589,2.168-2.589
		c0.75,0,1.24,0.35,1.459,0.729h0.021v-2.888H46.057z M45.187,49.632c0-0.11-0.011-0.26-0.04-0.37c-0.13-0.55-0.609-1.01-1.27-1.01
		c-0.909,0-1.449,0.8-1.449,1.859c0,0.979,0.49,1.789,1.43,1.789c0.59,0,1.129-0.399,1.289-1.05c0.029-0.119,0.04-0.239,0.04-0.38
		V49.632z"/>
</g>
</svg>
