<?xml version="1.0" encoding="utf-8"?>
<!-- Generator: Adobe Illustrator 14.0.0, SVG Export Plug-In . SVG Version: 6.00 Build 43363)  -->
<!DOCTYPE svg PUBLIC "-//W3C//DTD SVG 1.1//EN" "http://www.w3.org/Graphics/SVG/1.1/DTD/svg11.dtd">
<svg version="1.1" id="Layer_1" xmlns="http://www.w3.org/2000/svg" xmlns:xlink="http://www.w3.org/1999/xlink" x="0px" y="0px"
	 width="50px" height="50px" viewBox="0 0 50 50" enable-background="new 0 0 50 50" xml:space="preserve">
<g>
	<g>
		<path fill="#E6E6E6" stroke="#E6E6E6" stroke-width="2" stroke-miterlimit="1" d="M12.965,37.367
			c1.047-5.358,2.561-10.667,4.451-15.787c1.568-4.247,3.18-9.831,6.096-13.364c-0.596,0.13-1.191,0.261-1.787,0.391
			c1.229,1.564,1.337,4.2,1.762,6.048c0.553,2.406,1.164,4.799,1.739,7.2c1.117,4.661,2.293,9.336,3.266,14.028
			c0.624-0.199,1.248-0.398,1.873-0.6c-3.342-1.924-6.042-5.256-8.798-7.915c-3.284-3.168-7.338-5.492-10.549-8.702
			c-0.271,0.228-0.543,0.456-0.815,0.684c4.427-0.988,9.01-1.585,13.509-2.139c1.741-0.214,3.47-0.518,5.2-0.801
			c3.396-0.556,2.834,0.272,0.58,1.785c-6.294,4.225-11.951,9.749-16.462,15.819c-0.417,0.562,1.467,0.295,1.761-0.101
			c2.925-3.937,6.295-7.384,9.911-10.684c3.258-2.974,7.293-4.948,10.505-7.893c0.337-0.309-0.291-0.391-0.473-0.377
			c-8.185,0.654-16.702,1.915-24.713,3.704c-0.17,0.038-1.131,0.368-0.815,0.684c2.816,2.816,6.348,4.974,9.356,7.596
			c3.317,2.893,6.151,6.81,9.991,9.021c0.34,0.195,1.993-0.021,1.873-0.6c-1.097-5.296-2.436-10.567-3.695-15.827
			c-0.823-3.437-0.973-8.793-3.188-11.614c-0.299-0.382-1.552,0.106-1.787,0.391c-2.701,3.271-4.093,8.108-5.648,12.006
			c-2.227,5.583-3.898,11.464-5.05,17.362C10.95,38.209,12.864,37.881,12.965,37.367L12.965,37.367z"/>
	</g>
</g>
<text transform="matrix(1 0 0 1 9.1426 59.2168)" fill="#FFFFFF" font-family="'MyriadPro-Regular'" font-size="18">Star</text>
</svg>
