<?xml version="1.0" encoding="utf-8"?>
<!-- Generator: Adobe Illustrator 14.0.0, SVG Export Plug-In . SVG Version: 6.00 Build 43363)  -->
<!DOCTYPE svg PUBLIC "-//W3C//DTD SVG 1.1//EN" "http://www.w3.org/Graphics/SVG/1.1/DTD/svg11.dtd">
<svg version="1.1" id="Layer_1" xmlns="http://www.w3.org/2000/svg" xmlns:xlink="http://www.w3.org/1999/xlink" x="0px" y="0px"
	 width="50px" height="50px" viewBox="0 0 50 50" enable-background="new 0 0 50 50" xml:space="preserve">
<g>
	<g>
		<path fill="#E6E6E6" d="M27.502,13.222C14.678,10.728,1.59,33.806,17.114,37.762c5.55,1.414,14.542,0.587,18.541-4.188
			c5.761-6.878-0.227-14.002-6.315-17.57c-0.518-0.303-2.309,0.459-1.545,0.907c3.982,2.333,7.003,4.592,7.975,9.335
			C37.421,34.316,27.378,38,20.96,37.325c-5.407-0.568-9.759-3.654-8.797-9.472c1.081-6.532,6.07-15.192,14.146-13.621
			C26.891,14.346,28.585,13.432,27.502,13.222L27.502,13.222z"/>
	</g>
</g>
<g>
	<g>
		<path fill="#E6E6E6" d="M24.008,19.613c1.424,0.203,2.579,1.193,3.493,2.242c0.543,0.623,2.385-0.128,1.775-0.827
			c-1.218-1.398-2.71-2.476-4.579-2.742C23.798,18.158,22.708,19.428,24.008,19.613L24.008,19.613z"/>
	</g>
</g>
</svg>
