<?xml version="1.0" encoding="utf-8"?>
<!-- Generator: Adobe Illustrator 14.0.0, SVG Export Plug-In . SVG Version: 6.00 Build 43363)  -->
<!DOCTYPE svg PUBLIC "-//W3C//DTD SVG 1.1//EN" "http://www.w3.org/Graphics/SVG/1.1/DTD/svg11.dtd">
<svg version="1.1" id="Layer_1" xmlns="http://www.w3.org/2000/svg" xmlns:xlink="http://www.w3.org/1999/xlink" x="0px" y="0px"
	 width="50px" height="50px" viewBox="0 0 50 50" enable-background="new 0 0 50 50" xml:space="preserve">
<g>
	<g>
		<path fill="#969696" stroke="#969696" stroke-width="2" stroke-miterlimit="1" d="M16.875,10.748
			c0.793,1.221,1.154,2.697,1.857,3.98c0.771,1.405,1.749,2.697,2.712,3.973c0.469,0.621,2.324-0.087,1.78-0.808
			c-0.969-1.284-1.902-2.582-2.713-3.973c-0.745-1.278-1.051-2.738-1.857-3.979C18.237,9.296,16.375,9.978,16.875,10.748
			L16.875,10.748z"/>
	</g>
</g>
<g>
	<g>
		<path fill="#969696" stroke="#969696" stroke-width="2" stroke-miterlimit="1" d="M25.842,19.827
			c4.145-2.697,8.45-5.108,12.819-7.418c1.149-0.608-0.571-0.898-1.197-0.567c-4.368,2.311-8.675,4.722-12.819,7.418
			C23.548,19.973,25.229,20.225,25.842,19.827L25.842,19.827z"/>
	</g>
</g>
<g>
	<g>
		<path fill="#969696" stroke="#969696" stroke-width="2" stroke-miterlimit="1" d="M27.824,24.324
			c2.47,2.22,4.999,4.267,7.963,5.794c0.812,0.419,2.208-0.763,1.107-1.328c-2.821-1.455-5.238-3.489-7.586-5.6
			C28.65,22.599,26.98,23.565,27.824,24.324L27.824,24.324z"/>
	</g>
</g>
<g>
	<g>
		<path fill="#969696" stroke="#969696" stroke-width="2" stroke-miterlimit="1" d="M21.977,24.769
			c-0.916,1.398-1.347,2.98-1.83,4.566c-0.818,2.692-1.792,5.34-2.632,8.026c-0.191,0.611,1.735,0.341,1.925-0.27
			c0.68-2.177,1.392-4.343,2.122-6.503c0.657-1.94,1.065-4.096,2.201-5.83C24.225,24.058,22.294,24.284,21.977,24.769L21.977,24.769
			z"/>
	</g>
</g>
<g>
	<g>
		<path fill="#969696" stroke="#969696" stroke-width="2" stroke-miterlimit="1" d="M19.387,21.388
			c-4.052,1.377-7.875,3.642-11.87,5.221c-1.278,0.507-0.067,0.759,0.675,0.466c3.992-1.58,7.826-3.849,11.87-5.223
			C21.366,21.409,20.131,21.135,19.387,21.388L19.387,21.388z"/>
	</g>
</g>
<g>
	<g>
		<path fill="#969696" stroke="#969696" stroke-width="2" stroke-miterlimit="1" d="M25.514,10.668
			c-0.178,0.534-0.354,1.068-0.534,1.603c-0.154,0.463,0.598,0.597,0.875,0.572c0.474-0.042,0.92-0.284,1.074-0.746
			c0.178-0.534,0.354-1.068,0.531-1.603c0.154-0.463-0.598-0.598-0.876-0.572C26.115,9.964,25.668,10.206,25.514,10.668
			L25.514,10.668z"/>
	</g>
</g>
<g>
	<g>
		<path fill="#969696" stroke="#969696" stroke-width="2" stroke-miterlimit="1" d="M10.476,17.784c0.574,0,1.147,0,1.721,0
			c0.415,0,0.996-0.168,1.287-0.481c0.312-0.335-0.271-0.393-0.477-0.393c-0.574,0-1.147,0-1.721,0
			c-0.415,0-0.996,0.168-1.287,0.481C9.688,17.727,10.27,17.784,10.476,17.784L10.476,17.784z"/>
	</g>
</g>
<g>
	<g>
		<path fill="#969696" stroke="#969696" stroke-width="2" stroke-miterlimit="1" d="M13.378,32.168
			c0.444-0.4,0.808-0.871,1.192-1.326c0.309-0.365-0.26-0.566-0.525-0.574c-0.471-0.013-0.968,0.166-1.274,0.529
			c-0.305,0.361-0.591,0.729-0.943,1.047c-0.303,0.273-0.216,0.606,0.185,0.69C12.463,32.628,13.035,32.477,13.378,32.168
			L13.378,32.168z"/>
	</g>
</g>
<g>
	<g>
		<path fill="#969696" stroke="#969696" stroke-width="2" stroke-miterlimit="1" d="M29.236,32.341
			c-0.442-0.769-0.83-1.565-1.314-2.312c-0.339-0.521-2.217,0.102-1.797,0.746c0.436,0.67,0.781,1.392,1.18,2.082
			C27.67,33.492,29.521,32.838,29.236,32.341L29.236,32.341z"/>
	</g>
</g>
<g>
	<g>
		<path fill="#969696" stroke="#969696" stroke-width="2" stroke-miterlimit="1" d="M39.682,20.208
			c-1.17,0.125-2.326,0.343-3.502,0.416c-0.354,0.022-0.996,0.249-1.1,0.647c-0.112,0.435,0.597,0.413,0.83,0.398
			c1.175-0.072,2.331-0.29,3.501-0.416c0.356-0.039,0.993-0.237,1.101-0.647C40.621,20.178,39.916,20.182,39.682,20.208
			L39.682,20.208z"/>
	</g>
</g>
</svg>
