<?xml version="1.0" encoding="utf-8"?>
<!-- Generator: Adobe Illustrator 14.0.0, SVG Export Plug-In . SVG Version: 6.00 Build 43363)  -->
<!DOCTYPE svg PUBLIC "-//W3C//DTD SVG 1.1//EN" "http://www.w3.org/Graphics/SVG/1.1/DTD/svg11.dtd">
<svg version="1.1" xmlns="http://www.w3.org/2000/svg" xmlns:xlink="http://www.w3.org/1999/xlink" x="0px" y="0px" width="200px"
	 height="200px" viewBox="0 0 200 200" enable-background="new 0 0 200 200" xml:space="preserve">
<g id="Layer_1">
	<path fill="#070707" stroke="#EC5DD9" stroke-width="7" d="M142.222,132.043c0.627,0.661,0.132,0.794-0.678,0.183
		c-4.13,3.98-7.252,9.696-13.183,11.25c-0.942-11.118,0.017-22.285-0.743-33.402c3.37-4.347,8.855-6.791,11.86-11.268
		c-2.214-4.908-8.639-6.906-12.125-11.085c0.098-8.426,0.165-16.851,0.281-25.277c8.556-0.083,16.702-4.675,21.097-12.01
		c2.576-5.666,2.988-12.357,1.552-18.403c-3.585-9.632-14.951-13.316-24.418-13.101c-0.561,0.38-1.668,1.124-2.229,1.504
		c4.608,0.181,10.227,1.288,12.671,5.715c2.56,3.353-0.38,8.392-4.064,9.4c-4.957,2.147-10.342,0-15.281-1.091
		c-5.501-1.602-11.136-2.792-16.42-5.022c-5.585-1.387-11.103-3.089-16.52-5.038c-9.565-1.57-19.741,0-27.522,6.045
		c-5.104,4.94-9.334,11.581-8.591,18.982c-0.826,7.715,4.246,16.354,12.142,17.775c-6.277-4.113-4.08-13.728,2.099-16.817
		c7.119-1.883,14.503,0.264,21.293,2.445c4.906,1.057,10.11,1.404,14.72,3.536c9.185,2.213,18.336,4.658,27.753,5.831
		c0.148,8.426,0.347,16.884,0.199,25.326c-2.529,4.824-8.426,6.74-11.185,11.349c2.957,4.757,9.053,6.642,11.779,11.615
		c0.562,10.457-0.019,20.931,0.461,31.371c1.074,4.394-3.85,5.236-6.624,6.987c-1.769,0.495-3.519,1.024-5.221,1.57
		c-5.749,0.908-11.596,0.874-17.363,0.247c-7.847-2.312-14.817-6.643-20.732-12.209c0.578-0.611,1.734-1.834,2.312-2.445
		c9.863-4.956,19.957-9.515,29.373-15.312c0-7.27,0.117-14.54-0.842-21.741c1.075-11.432,0.099-22.897-0.529-34.329
		c-12.917,5.633-25.408,12.406-38.557,17.362c3.354-7.351,7.55-15.264,14.868-19.328c1.437-1.321,2.891-2.66,4.312-4.014
		c-0.827,0.099-2.494,0.296-3.338,0.396c-11.876,4.593-23.094,11.944-30.231,22.715c-3.965,5.105-5.964,11.316-9.202,16.85
		c-2.692,11.151-2.312,22.602,0,33.784c2.43,5.698,4.379,11.697,7.963,16.817c5.997,8.227,13.976,14.934,23.096,19.477
		c3.353,0.908,6.674,1.983,9.929,3.255c11.382,1.752,23.326,1.487,33.932-3.485c11.877-5.749,22.483-15.513,25.854-28.679
		c2.957-5.865,3.801-12.488,4.262-18.965C145.789,121.966,144.897,128.491,142.222,132.043z M69.174,132.349
		c-2.199-3.182-2.786-7.161-3.988-10.76c-1.714-5.135-4.167-10.213-3.609-15.776c0.445-4.433,0.977-8.555,2.603-11.77
		c0.359-1.602,0.616-3.226,1.045-4.812c0.131-0.486,0.345-0.915,0.601-1.306c-0.269-2.156,0.761-4.284,3.58-4.709
		c3.143-0.474,5.813-1.887,8.439-3.625c3.448-2.282,7.181,0.829,7.523,4.317c0.686,6.976,0.732,13.971,0.48,20.971
		c-0.135,3.76-0.585,7.61-0.48,11.368c0.065,2.333,0.468,4.774,0.217,7.102c-0.455,4.225-2.269,8.821-6.431,10.815
		C75.554,135.89,71.647,135.926,69.174,132.349z"/>
</g>
<g id="Layer_3">
	<path fill="#070707" d="M142.222,132.043c0.627,0.661,0.132,0.794-0.678,0.183c-4.13,3.98-7.252,9.696-13.183,11.25
		c-0.942-11.118,0.017-22.285-0.743-33.402c3.37-4.347,8.855-6.791,11.86-11.268c-2.214-4.907-8.639-6.906-12.125-11.085
		c0.098-8.426,0.165-16.851,0.281-25.277c8.556-0.083,16.702-4.675,21.097-12.01c2.576-5.666,2.988-12.357,1.552-18.403
		c-3.585-9.632-14.951-13.316-24.418-13.101c-0.561,0.38-1.668,1.124-2.229,1.504c4.608,0.181,10.227,1.288,12.671,5.715
		c2.56,3.353-0.38,8.392-4.064,9.4c-4.957,2.147-10.342,0-15.281-1.091c-5.501-1.602-11.136-2.792-16.421-5.022
		c-5.585-1.387-11.102-3.089-16.52-5.038c-9.565-1.57-19.741,0-27.522,6.045c-5.104,4.94-9.334,11.581-8.591,18.982
		c-0.826,7.715,4.246,16.354,12.142,17.775c-6.277-4.113-4.08-13.728,2.099-16.817c7.119-1.883,14.503,0.264,21.293,2.445
		c4.906,1.057,10.11,1.404,14.72,3.536c9.186,2.213,18.337,4.658,27.754,5.831c0.148,8.426,0.347,16.884,0.199,25.326
		c-2.529,4.824-8.426,6.74-11.185,11.349c2.957,4.757,9.053,6.642,11.779,11.615c0.562,10.457-0.019,20.931,0.461,31.371
		c1.074,4.394-3.85,5.236-6.624,6.987c-1.769,0.495-3.519,1.024-5.221,1.57c-5.749,0.908-11.596,0.874-17.363,0.247
		c-7.847-2.312-14.817-6.643-20.732-12.209c0.578-0.611,1.734-1.834,2.312-2.445c9.863-4.956,19.957-9.515,29.373-15.312
		c0-7.27,0.117-14.54-0.842-21.741c1.075-11.432,0.099-22.897-0.529-34.329c-12.917,5.633-25.408,12.406-38.557,17.362
		c3.354-7.351,7.55-15.264,14.868-19.328c1.437-1.321,2.891-2.66,4.312-4.014c-0.827,0.099-2.494,0.296-3.338,0.396
		c-11.876,4.593-23.094,11.944-30.231,22.715c-3.965,5.105-5.964,11.316-9.202,16.85c-2.692,11.151-2.312,22.602,0,33.784
		c2.43,5.698,4.379,11.697,7.963,16.817c5.997,8.227,13.976,14.934,23.096,19.477c3.353,0.908,6.674,1.983,9.929,3.255
		c11.382,1.752,23.326,1.487,33.932-3.485c11.877-5.749,22.483-15.513,25.854-28.679c2.957-5.865,3.801-12.488,4.262-18.965
		C145.789,121.966,144.897,128.491,142.222,132.043z M69.174,132.349c-2.199-3.182-2.786-7.161-3.988-10.76
		c-1.714-5.135-4.167-10.213-3.609-15.776c0.445-4.433,0.977-8.555,2.603-11.77c0.359-1.602,0.616-3.226,1.045-4.812
		c0.131-0.486,0.345-0.915,0.601-1.306c-0.269-2.156,0.761-4.284,3.58-4.709c3.143-0.474,5.813-1.887,8.439-3.625
		c3.448-2.282,7.181,0.829,7.523,4.317c0.686,6.976,0.732,13.97,0.48,20.971c-0.135,3.76-0.585,7.61-0.48,11.368
		c0.065,2.333,0.468,4.774,0.217,7.102c-0.455,4.225-2.269,8.821-6.431,10.815C75.554,135.89,71.647,135.926,69.174,132.349z"/>
</g>
</svg>
