<?xml version="1.0" encoding="utf-8"?>
<!-- Generator: Adobe Illustrator 14.0.0, SVG Export Plug-In . SVG Version: 6.00 Build 43363)  -->
<!DOCTYPE svg PUBLIC "-//W3C//DTD SVG 1.1//EN" "http://www.w3.org/Graphics/SVG/1.1/DTD/svg11.dtd">
<svg version="1.1" id="Layer_1" xmlns="http://www.w3.org/2000/svg" xmlns:xlink="http://www.w3.org/1999/xlink" x="0px" y="0px"
	 width="193.333px" height="250px" viewBox="0 0 193.333 250" enable-background="new 0 0 193.333 250" xml:space="preserve">
<g id="Layer_2_1_">
</g>
<g id="Layer_1_1_">
	<path fill="#C90000" d="M193.333,238c0,6.627-5.192,12-11.6,12H11.6C5.193,250,0,244.627,0,238V12C0,5.373,5.193,0,11.6,0h170.133
		c6.406,0,11.6,5.373,11.6,12V238L193.333,238z"/>
	<path fill="#424242" d="M178.667,162c0,6.627-5.373,12-12,12h-136c-6.627,0-12-5.373-12-12V26c0-6.627,5.373-12,12-12h136
		c6.627,0,12,5.373,12,12V162z"/>
</g>
<g id="XMLID_1_">
	<g>
		<polygon fill="#C1272D" points="155.389,-71.799 155.389,-17.237 42.245,-17.237 42.245,-71.799 98.813,-44.515 		"/>
		<polygon fill="#C1272D" points="155.389,-71.799 98.813,-44.515 42.245,-71.799 		"/>
	</g>
	<g>
		<rect x="42.245" y="-71.799" fill="none" stroke="#E6E6E6" stroke-width="7" width="113.145" height="54.562"/>
		<line fill="none" stroke="#E6E6E6" stroke-width="7" x1="98.813" y1="-44.515" x2="155.389" y2="-71.799"/>
		<line fill="none" stroke="#E6E6E6" stroke-width="7" x1="98.813" y1="-44.515" x2="42.245" y2="-71.799"/>
	</g>
</g>
<line fill="none" stroke="#E6E6E6" stroke-width="13" x1="96.845" y1="-44.5" x2="100.813" y2="-44.5"/>
</svg>
