<?xml version="1.0" encoding="utf-8"?>
<!-- Generator: Adobe Illustrator 14.0.0, SVG Export Plug-In . SVG Version: 6.00 Build 43363)  -->
<!DOCTYPE svg PUBLIC "-//W3C//DTD SVG 1.1//EN" "http://www.w3.org/Graphics/SVG/1.1/DTD/svg11.dtd">
<svg version="1.1" id="Layer_1" xmlns="http://www.w3.org/2000/svg" xmlns:xlink="http://www.w3.org/1999/xlink" x="0px" y="0px"
	 width="193.333px" height="356.5px" viewBox="0 -106.5 193.333 356.5" enable-background="new 0 -106.5 193.333 356.5"
	 xml:space="preserve">
<g id="Layer_2_1_">
</g>
<g id="Layer_1_1_">
	<path fill="#6DC900" d="M193.333,238c0,6.627-5.191,12-11.6,12H11.6C5.193,250,0,244.627,0,238V12C0,5.373,5.193,0,11.6,0h170.133
		c6.406,0,11.6,5.373,11.6,12V238L193.333,238z"/>
	<path fill="#424242" d="M178.667,162c0,6.627-5.373,12-12,12h-136c-6.627,0-12-5.373-12-12V26c0-6.627,5.373-12,12-12h136
		c6.627,0,12,5.373,12,12V162z"/>
</g>
<rect x="63.817" y="-84.367" fill="#FFFFFF" stroke="#6DC900" stroke-width="10" width="65.072" height="65.072"/>
<line fill="none" stroke="#E6E6E6" stroke-width="9" x1="72.806" y1="-62.092" x2="100.01" y2="-32.416"/>
<line fill="none" stroke="#E6E6E6" stroke-width="9" x1="97.758" y1="-31.755" x2="127.042" y2="-100.547"/>
</svg>
