<?xml version="1.0" encoding="utf-8"?>
<!-- Generator: Adobe Illustrator 14.0.0, SVG Export Plug-In . SVG Version: 6.00 Build 43363)  -->
<!DOCTYPE svg PUBLIC "-//W3C//DTD SVG 1.1//EN" "http://www.w3.org/Graphics/SVG/1.1/DTD/svg11.dtd">
<svg version="1.1" id="Layer_1" xmlns="http://www.w3.org/2000/svg" xmlns:xlink="http://www.w3.org/1999/xlink" x="0px" y="0px"
	 width="193.333px" height="250px" viewBox="0 53.25 193.333 250" enable-background="new 0 53.25 193.333 250"
	 xml:space="preserve">
<g id="Layer_2_1_">
</g>
<g id="Layer_1_1_">
	<path fill="#6DC900" d="M193.333,291.25c0,6.627-5.19,12-11.6,12H11.6c-6.407,0-11.6-5.373-11.6-12v-226c0-6.627,5.193-12,11.6-12
		h170.133c6.406,0,11.6,5.373,11.6,12V291.25L193.333,291.25z"/>
	<path fill="#424242" d="M178.667,215.25c0,6.627-5.373,12-12,12h-136c-6.627,0-12-5.373-12-12v-136c0-6.627,5.373-12,12-12h136
		c6.627,0,12,5.373,12,12V215.25z"/>
</g>
<rect x="64.13" y="-39.435" fill="#FFFFFF" stroke="#6DC900" stroke-width="10" width="65.072" height="65.072"/>
<line fill="none" stroke="#E6E6E6" stroke-width="9" x1="73.12" y1="-17.159" x2="100.324" y2="12.517"/>
<line fill="none" stroke="#E6E6E6" stroke-width="9" x1="98.072" y1="13.178" x2="127.355" y2="-55.614"/>
</svg>
