<?xml version="1.0" encoding="utf-8"?>
<!-- Generator: Adobe Illustrator 14.0.0, SVG Export Plug-In . SVG Version: 6.00 Build 43363)  -->
<!DOCTYPE svg PUBLIC "-//W3C//DTD SVG 1.1//EN" "http://www.w3.org/Graphics/SVG/1.1/DTD/svg11.dtd">
<svg version="1.1" id="Layer_1" xmlns="http://www.w3.org/2000/svg" xmlns:xlink="http://www.w3.org/1999/xlink" x="0px" y="0px"
	 width="193.333px" height="250px" viewBox="0 0 193.333 250" enable-background="new 0 0 193.333 250" xml:space="preserve">
<g id="Layer_2_1_">
</g>
<g id="Layer_1_1_">
	<path fill="#33CCFF" d="M193.333,238c0,6.627-5.192,12-11.6,12H11.6C5.193,250,0,244.627,0,238V12C0,5.373,5.193,0,11.6,0h170.133
		c6.406,0,11.6,5.373,11.6,12V238L193.333,238z"/>
	<path fill="#424242" d="M178.667,162c0,6.627-5.373,12-12,12h-136c-6.627,0-12-5.373-12-12V26c0-6.627,5.373-12,12-12h136
		c6.627,0,12,5.373,12,12V162z"/>
</g>
<g id="Layer_2">
	<path fill="#33CCFF" stroke="#FFFFFF" stroke-width="15" d="M118.675-23.024c0,2.601-0.93,4.833-2.789,6.689
		c-1.859,1.857-4.089,2.786-6.692,2.786H90.45c-7.809,0-14.482-2.769-20.024-8.311c-5.542-5.542-8.312-12.215-8.312-20.026v-37.819
		c0-2.677,0.923-4.926,2.769-6.75c1.845-1.821,4.1-2.734,6.761-2.734c2.584,0,4.804,0.93,6.647,2.79
		c1.849,1.856,2.774,4.084,2.774,6.687v9.474h28.095c2.612,0,4.852,0.929,6.718,2.789c1.867,1.856,2.797,4.085,2.797,6.687
		c0,2.599-0.93,4.831-2.789,6.688c-1.859,1.855-4.095,2.787-6.696,2.787H81.065v9.394c0,2.61,0.909,4.827,2.734,6.658
		c1.824,1.824,4.037,2.736,6.642,2.736h18.75c2.601,0,4.836,0.931,6.695,2.789C117.747-27.853,118.675-25.624,118.675-23.024z"/>
</g>
<g id="Layer_1_2_">
	<path fill="#33CCFF" d="M118.675-23.024c0,2.601-0.93,4.833-2.789,6.689c-1.859,1.857-4.089,2.786-6.692,2.786H90.45
		c-7.809,0-14.482-2.769-20.024-8.311c-5.542-5.542-8.312-12.215-8.312-20.026v-37.819c0-2.677,0.923-4.926,2.769-6.75
		c1.845-1.821,4.1-2.734,6.761-2.734c2.584,0,4.804,0.93,6.647,2.79c1.849,1.856,2.774,4.084,2.774,6.687v9.474h28.095
		c2.612,0,4.852,0.929,6.718,2.789c1.867,1.856,2.797,4.085,2.797,6.687c0,2.599-0.93,4.831-2.789,6.688
		c-1.859,1.855-4.095,2.787-6.696,2.787H81.065v9.394c0,2.61,0.909,4.827,2.734,6.658c1.824,1.824,4.037,2.736,6.642,2.736h18.75
		c2.601,0,4.836,0.931,6.695,2.789C117.747-27.853,118.675-25.624,118.675-23.024z"/>
</g>
</svg>
