<?xml version="1.0" encoding="utf-8"?>
<!-- Generator: Adobe Illustrator 14.0.0, SVG Export Plug-In . SVG Version: 6.00 Build 43363)  -->
<!DOCTYPE svg PUBLIC "-//W3C//DTD SVG 1.1//EN" "http://www.w3.org/Graphics/SVG/1.1/DTD/svg11.dtd">
<svg version="1.1" id="Layer_1" xmlns="http://www.w3.org/2000/svg" xmlns:xlink="http://www.w3.org/1999/xlink" x="0px" y="0px"
	 width="200px" height="200px" viewBox="0 0 200 200" enable-background="new 0 0 200 200" xml:space="preserve">
<filter  id="AI_GaussianBlur_4">
	<feGaussianBlur  stdDeviation="4"></feGaussianBlur>
</filter>
<g filter="url(#AI_GaussianBlur_4)">
	<path d="M183.83,170.935c0,6.161-4.995,11.156-11.156,11.156H27.772c-6.162,0-11.156-4.995-11.156-11.156V26.468
		c0-6.162,4.995-11.156,11.156-11.156h144.901c6.161,0,11.156,4.995,11.156,11.156V170.935z"/>
	<path fill="none" stroke="#661EDE" stroke-width="18" d="M183.83,170.935c0,6.161-4.995,11.156-11.156,11.156H27.772
		c-6.162,0-11.156-4.995-11.156-11.156V26.468c0-6.162,4.995-11.156,11.156-11.156h144.901c6.161,0,11.156,4.995,11.156,11.156
		V170.935z"/>
</g>
</svg>
