<?xml version="1.0" encoding="utf-8"?>
<!-- Generator: Adobe Illustrator 14.0.0, SVG Export Plug-In . SVG Version: 6.00 Build 43363)  -->
<!DOCTYPE svg PUBLIC "-//W3C//DTD SVG 1.1//EN" "http://www.w3.org/Graphics/SVG/1.1/DTD/svg11.dtd">
<svg version="1.1" id="Layer_1" xmlns="http://www.w3.org/2000/svg" xmlns:xlink="http://www.w3.org/1999/xlink" x="0px" y="0px"
	 width="50px" height="50px" viewBox="0 0 50 50" enable-background="new 0 0 50 50" xml:space="preserve">
<g>
	<g>
		<path fill="#969696" stroke="#969696" stroke-width="2" stroke-miterlimit="1" d="M6.711,34.104
			c0.537,6.879,7.341,6.254,11.166,2.479c2.326-2.295,7.291-15.317,1.434-15.788c-0.502-0.041-0.979,0.161-1.262,0.578
			c-1.719,2.54-2.016,10.205,2.91,8.885c2.305-0.615,4.537-3.583,6.141-5.077c4.166-3.879,8.215-7.881,12.18-11.965
			c0.839-0.863-1.034-1.103-1.604-0.518c-2.642,2.722-5.324,5.399-8.049,8.042c-0.906,0.881-9.437,10.146-10.744,6.018
			c0.168,0.532-0.012-5.48,0.829-2.864c0.502,1.562,0.061,3.547-0.222,5.122c-0.297,1.651-0.939,3.213-1.637,4.729
			c-2.093,4.543-8.728,6.041-9.211-0.155C8.578,32.755,6.641,33.21,6.711,34.104L6.711,34.104z"/>
	</g>
</g>
<g>
	<g>
		<path fill="#969696" stroke="#969696" stroke-width="2" stroke-miterlimit="1" d="M34.703,14.101
			c2.238-1.074,4.693-1.45,7.107-1.924c-0.371-0.279-0.744-0.558-1.117-0.837c-0.576,1.449-1.379,2.79-1.881,4.269
			c-0.549,1.62-0.864,3.359-1.924,4.747c0.454-0.122,0.909-0.244,1.365-0.366c-0.87-0.441-1.193-1.768-1.529-2.601
			c-0.451-1.119-1.197-2.061-1.613-3.208c-0.336-0.926-2.262-0.391-1.932,0.518c0.551,1.521,1.454,2.871,2.086,4.36
			c0.416,0.984,0.924,1.804,1.891,2.294c0.423,0.214,1.092-0.006,1.365-0.366c0.933-1.221,1.393-2.636,1.834-4.09
			c0.564-1.854,1.482-3.5,2.195-5.292c0.29-0.731-0.591-0.941-1.117-0.837c-2.602,0.51-5.201,0.957-7.609,2.112
			C32.637,13.448,33.691,14.585,34.703,14.101L34.703,14.101z"/>
	</g>
</g>
<g>
	<g>
		<path fill="#969696" stroke="#969696" stroke-width="2" stroke-miterlimit="1" d="M34.713,14.169
			c0.102,2.277,0.499,4.514,1.139,6.701c0.228,0.777,1.896,0.389,1.94-0.345c0.128-2.097-0.108-4.232,0.653-6.236
			c-0.627,0.057-1.256,0.114-1.883,0.171c0.138,1.271-0.363,2.501-0.545,3.744c-0.139,0.955,1.607,0.544,1.894,0.001
			c0.948-1.812,1.787-3.676,2.671-5.519c0.255-0.531-0.379-0.813-0.818-0.75c-1.104,0.16-2.506,0.625-3.266,1.493
			c-0.26,0.297-0.227,0.654-0.201,1.019c0.088,1.297,0.312,2.557,0.314,3.874c0.002,0.918,1.631,0.642,1.894,0.001
			c0.786-1.913-0.479-3.806-1.514-5.367c-0.45-0.68-2.304,0.028-1.775,0.826c0.775,1.17,2.062,2.889,1.455,4.366
			c0.631,0,1.263,0.001,1.894,0.001c-0.002-0.857-0.021-1.709-0.08-2.564c-0.036-0.558-0.144-1.109-0.256-1.655
			c-0.061-0.294,1.347-0.67,1.34-0.67c-0.272-0.25-0.547-0.5-0.818-0.75c-0.885,1.843-1.725,3.708-2.671,5.519
			c0.631,0,1.262,0.001,1.894,0.001c0.199-1.385,0.678-2.675,0.523-4.09c-0.085-0.781-1.688-0.347-1.885,0.171
			c-0.816,2.149-0.631,4.33-0.771,6.583c0.647-0.115,1.296-0.23,1.941-0.345c-0.603-2.067-1.023-4.201-1.118-6.355
			C36.621,13.028,34.678,13.372,34.713,14.169L34.713,14.169z"/>
	</g>
</g>
</svg>
