<?xml version="1.0" encoding="utf-8"?>
<!-- Generator: Adobe Illustrator 14.0.0, SVG Export Plug-In . SVG Version: 6.00 Build 43363)  -->
<!DOCTYPE svg PUBLIC "-//W3C//DTD SVG 1.1//EN" "http://www.w3.org/Graphics/SVG/1.1/DTD/svg11.dtd">
<svg version="1.1" id="Layer_1" xmlns="http://www.w3.org/2000/svg" xmlns:xlink="http://www.w3.org/1999/xlink" x="0px" y="0px"
	 width="50px" height="50px" viewBox="0 0 50 50" enable-background="new 0 0 50 50" xml:space="preserve">
<g>
	<g>
		<path fill="#E6E6E6" stroke="#E6E6E6" stroke-width="2" stroke-miterlimit="1" d="M10.825,12.478
			c3.074,3.888,7.862,4.244,12.64,3.631c1.89-0.242,6.777-0.857,7.288-3.292c0.771-3.671-5.792-4.556-8.09-4.666
			c-3.935-0.187-8.174,0.385-10.74,3.603c-0.754,0.947,1.09,1.138,1.599,0.501c2.09-2.622,5.32-2.798,8.45-2.785
			c1.281,0.006,9.747,2.064,5.959,4.171c-4.427,2.461-12.271,1.879-15.332-1.99C12.092,11.01,10.244,11.744,10.825,12.478
			L10.825,12.478z"/>
	</g>
</g>
<g>
	<g>
		<path fill="#E6E6E6" stroke="#E6E6E6" stroke-width="2" stroke-miterlimit="1" d="M10.138,12.843
			C9.931,21.758,9.92,30.63,10.019,39.549c0.012,1.049,1.972,0.778,1.962-0.131c-0.1-8.919-0.088-17.792,0.119-26.706
			C12.124,11.667,10.159,11.93,10.138,12.843L10.138,12.843z"/>
	</g>
</g>
<g>
	<g>
		<path fill="#E6E6E6" stroke="#E6E6E6" stroke-width="2" stroke-miterlimit="1" d="M28.729,12.621
			c0.039,9.301,0.558,18.591,0.596,27.893c0.002,0.479,1.935,0.146,1.932-0.518c-0.038-9.303-0.556-18.592-0.594-27.893
			C30.658,11.627,28.727,11.958,28.729,12.621L28.729,12.621z"/>
	</g>
</g>
<g>
	<g>
		<path fill="#E6E6E6" stroke="#E6E6E6" stroke-width="2" stroke-miterlimit="1" d="M10.115,39.848
			c1.681,3.364,4.664,5.051,8.425,5.058c5.156,0.009,8.306-1.474,12.147-4.753c0.998-0.853-0.549-1.48-1.274-0.86
			c-2.986,2.548-5.689,4.006-9.712,4.226c-3.558,0.19-6.243-1.361-7.816-4.514C11.508,38.248,9.665,38.945,10.115,39.848
			L10.115,39.848z"/>
	</g>
</g>
<g>
	<g>
		<path fill="#E6E6E6" stroke="#E6E6E6" stroke-width="2" stroke-miterlimit="1" d="M14.129,15.688
			c-0.728,3.356-0.822,6.676-0.761,10.095c0.096,5.332-0.252,10.578-0.426,15.898c-0.026,0.801,1.911,0.397,1.932-0.242
			c0.122-3.724,0.576-7.448,0.534-11.176c-0.056-4.987-0.412-9.91,0.653-14.819C16.219,14.715,14.272,15.028,14.129,15.688
			L14.129,15.688z"/>
	</g>
</g>
<g>
	<g>
		<path fill="#E6E6E6" stroke="#E6E6E6" stroke-width="2" stroke-miterlimit="1" d="M16.8,16.182
			c0.649,9.057,0.382,18.21,1.306,27.24c0.071,0.692,2.011,0.258,1.932-0.518c-0.921-9.014-0.657-18.194-1.306-27.24
			C18.683,14.981,16.744,15.401,16.8,16.182L16.8,16.182z"/>
	</g>
</g>
<g>
	<g>
		<path fill="#E6E6E6" stroke="#E6E6E6" stroke-width="2" stroke-miterlimit="1" d="M21.191,16.538
			c0.058,5.039,0.957,9.815,0.743,14.926c-0.155,3.713,0.263,7.257,0.444,10.949c0.03,0.612,1.968,0.221,1.932-0.519
			c-0.231-4.721-0.518-9.295-0.296-14.037c0.188-4.026-0.845-7.841-0.891-11.837C23.116,15.423,21.183,15.794,21.191,16.538
			L21.191,16.538z"/>
	</g>
</g>
<g>
	<g>
		<path fill="#E6E6E6" stroke="#E6E6E6" stroke-width="2" stroke-miterlimit="1" d="M25.228,16.122
			c0.609,8.234-0.139,16.507,1.187,24.688c0.079,0.487,2.022,0.051,1.933-0.52c-1.326-8.184-0.578-16.455-1.188-24.688
			C27.126,15.151,25.183,15.52,25.228,16.122L25.228,16.122z"/>
	</g>
</g>
<g>
	<g>
		<path fill="#E6E6E6" stroke="#E6E6E6" stroke-width="2" stroke-miterlimit="1" d="M14.373,12.828
			c0.974-0.803,1.852-1.717,2.849-2.493c0.31-0.241,0.229-0.529-0.157-0.584c-0.455-0.065-1.004,0.084-1.366,0.366
			c-0.998,0.776-1.875,1.689-2.849,2.493c-0.298,0.246-0.239,0.528,0.157,0.584C13.452,13.257,14.023,13.116,14.373,12.828
			L14.373,12.828z"/>
	</g>
</g>
<g>
	<g>
		<path fill="#E6E6E6" stroke="#E6E6E6" stroke-width="2" stroke-miterlimit="1" d="M14.943,13.734
			c1.407-1.092,2.875-2.102,4.207-3.287c0.328-0.292,0.173-0.7-0.217-0.809c-0.478-0.134-1.007,0.046-1.366,0.366
			c-1.22,1.085-2.575,2.004-3.864,3.004C12.666,13.812,14.268,14.259,14.943,13.734L14.943,13.734z"/>
	</g>
</g>
<g>
	<g>
		<path fill="#E6E6E6" stroke="#E6E6E6" stroke-width="2" stroke-miterlimit="1" d="M15.416,14.38
			c1.24-0.714,2.369-1.592,3.653-2.23c1.22-0.605,2.357-1.245,3.403-2.124c0.337-0.284,0.168-0.692-0.213-0.796
			c-0.484-0.132-0.996,0.055-1.366,0.366c-1.038,0.873-2.26,1.396-3.447,2.026c-1.135,0.603-2.152,1.405-3.266,2.047
			c-0.313,0.181-0.533,0.638-0.14,0.864C14.468,14.777,15.024,14.605,15.416,14.38L15.416,14.38z"/>
	</g>
</g>
<g>
	<g>
		<path fill="#E6E6E6" stroke="#E6E6E6" stroke-width="2" stroke-miterlimit="1" d="M17.179,14.138
			c2.857-1.493,5.976-2.38,8.723-4.095c1.111-0.693-0.575-0.974-1.2-0.584c-2.738,1.709-5.872,2.605-8.724,4.095
			C14.825,14.156,16.543,14.47,17.179,14.138L17.179,14.138z"/>
	</g>
</g>
<g>
	<path fill="#FFFFFF" d="M12.332,50.177h-2.049v-0.739h4.987v0.739h-2.059v5.997h-0.879V50.177z"/>
	<path fill="#FFFFFF" d="M15.542,52.846c0-0.569-0.01-1.06-0.04-1.509h0.77l0.04,0.959h0.03c0.22-0.649,0.759-1.06,1.349-1.06
		c0.09,0,0.16,0.01,0.24,0.021v0.829c-0.09-0.02-0.18-0.02-0.3-0.02c-0.62,0-1.059,0.459-1.179,1.119
		c-0.02,0.12-0.03,0.27-0.03,0.41v2.578h-0.879V52.846z"/>
	<path fill="#FFFFFF" d="M22.161,55.015c0,0.42,0.02,0.829,0.07,1.159h-0.79l-0.07-0.609h-0.03c-0.27,0.38-0.79,0.72-1.479,0.72
		c-0.979,0-1.479-0.69-1.479-1.39c0-1.169,1.04-1.809,2.909-1.799v-0.101c0-0.39-0.11-1.119-1.1-1.109
		c-0.459,0-0.929,0.13-1.269,0.36l-0.2-0.59c0.4-0.25,0.99-0.42,1.599-0.42c1.479,0,1.839,1.01,1.839,1.969V55.015z M21.312,53.705
		c-0.959-0.02-2.049,0.15-2.049,1.09c0,0.579,0.379,0.839,0.819,0.839c0.64,0,1.049-0.399,1.189-0.81
		c0.03-0.1,0.04-0.199,0.04-0.279V53.705z"/>
	<path fill="#FFFFFF" d="M23.463,55.284c0.27,0.16,0.729,0.34,1.169,0.34c0.63,0,0.93-0.31,0.93-0.72c0-0.42-0.25-0.64-0.89-0.879
		c-0.879-0.32-1.289-0.79-1.289-1.369c0-0.78,0.64-1.42,1.669-1.42c0.489,0,0.919,0.13,1.179,0.3l-0.209,0.64
		c-0.189-0.12-0.54-0.29-0.99-0.29c-0.52,0-0.799,0.3-0.799,0.66c0,0.399,0.28,0.58,0.909,0.829c0.829,0.311,1.27,0.729,1.27,1.449
		c0,0.86-0.67,1.46-1.799,1.46c-0.53,0-1.02-0.141-1.359-0.34L23.463,55.284z"/>
	<path fill="#FFFFFF" d="M27.543,49.078h0.879v3.028h0.02c0.141-0.25,0.36-0.48,0.631-0.63c0.26-0.15,0.569-0.24,0.898-0.24
		c0.65,0,1.689,0.4,1.689,2.059v2.879h-0.879v-2.778c0-0.779-0.29-1.43-1.119-1.43c-0.57,0-1.01,0.4-1.18,0.87
		c-0.051,0.13-0.061,0.26-0.061,0.42v2.918h-0.879V49.078z"/>
</g>
</svg>
