<?xml version="1.0" encoding="utf-8"?>
<!-- Generator: Adobe Illustrator 14.0.0, SVG Export Plug-In . SVG Version: 6.00 Build 43363)  -->
<!DOCTYPE svg PUBLIC "-//W3C//DTD SVG 1.1//EN" "http://www.w3.org/Graphics/SVG/1.1/DTD/svg11.dtd">
<svg version="1.1" id="Layer_1" xmlns="http://www.w3.org/2000/svg" xmlns:xlink="http://www.w3.org/1999/xlink" x="0px" y="0px"
	 width="50px" height="50px" viewBox="0 0 50 50" enable-background="new 0 0 50 50" xml:space="preserve">
<g>
	<g>
		<path fill="#E6E6E6" stroke="#E6E6E6" stroke-width="2" stroke-miterlimit="1" d="M27.502,13.222
			C14.678,10.728,1.59,33.807,17.114,37.762c5.55,1.414,14.542,0.588,18.541-4.188c5.763-6.879-0.227-14.002-6.313-17.57
			c-0.518-0.303-2.309,0.459-1.545,0.907c3.981,2.333,7.003,4.592,7.976,9.335c1.65,8.07-8.393,11.754-14.811,11.079
			c-5.407-0.568-9.759-3.654-8.797-9.472c1.081-6.534,6.07-15.192,14.146-13.623C26.891,14.346,28.585,13.432,27.502,13.222
			L27.502,13.222z"/>
	</g>
</g>
<g>
	<g>
		<path fill="#E6E6E6" stroke="#E6E6E6" stroke-width="2" stroke-miterlimit="1" d="M24.008,19.613
			c1.424,0.203,2.579,1.193,3.493,2.242c0.543,0.623,2.386-0.128,1.774-0.827c-1.217-1.398-2.709-2.476-4.58-2.742
			C23.798,18.158,22.708,19.428,24.008,19.613L24.008,19.613z"/>
	</g>
</g>
<text transform="matrix(1 0 0 1 -22.5 60.6504)" fill="#FFFFFF" font-family="'MyriadPro-Regular'" font-size="18">Mark Unread</text>
</svg>
