<?xml version="1.0" encoding="utf-8"?>
<!-- Generator: Adobe Illustrator 14.0.0, SVG Export Plug-In . SVG Version: 6.00 Build 43363)  -->
<!DOCTYPE svg PUBLIC "-//W3C//DTD SVG 1.1//EN" "http://www.w3.org/Graphics/SVG/1.1/DTD/svg11.dtd">
<svg version="1.1" id="Layer_1" xmlns="http://www.w3.org/2000/svg" xmlns:xlink="http://www.w3.org/1999/xlink" x="0px" y="0px"
	 width="50px" height="50px" viewBox="0 0 50 50" enable-background="new 0 0 50 50" xml:space="preserve">
<g>
	<g>
		<path fill="#E6E6E6" stroke="#E6E6E6" stroke-width="2" stroke-miterlimit="1" d="M27.502,13.222
			C14.678,10.728,1.59,33.807,17.114,37.762c5.55,1.414,14.542,0.588,18.541-4.188c5.763-6.879-0.227-14.002-6.313-17.57
			c-0.518-0.303-2.309,0.459-1.545,0.907c3.981,2.333,7.003,4.592,7.976,9.335c1.65,8.07-8.393,11.754-14.811,11.079
			c-5.407-0.568-9.759-3.654-8.797-9.472c1.081-6.534,6.07-15.192,14.146-13.623C26.891,14.346,28.585,13.432,27.502,13.222
			L27.502,13.222z"/>
	</g>
</g>
<g>
	<g>
		<path fill="#E6E6E6" stroke="#E6E6E6" stroke-width="2" stroke-miterlimit="1" d="M24.008,19.613
			c1.424,0.203,2.579,1.193,3.493,2.242c0.543,0.623,2.386-0.128,1.774-0.827c-1.217-1.398-2.709-2.476-4.58-2.742
			C23.798,18.158,22.708,19.428,24.008,19.613L24.008,19.613z"/>
	</g>
</g>
<g>
	<path fill="#FFFFFF" d="M0.224,47.057c-0.06-1.128-0.132-2.495-0.132-3.49H0.068c-0.288,0.936-0.612,1.955-1.02,3.07l-1.427,3.922
		H-3.17l-1.319-3.85c-0.384-1.151-0.695-2.184-0.923-3.143h-0.024c-0.024,1.008-0.084,2.351-0.156,3.574l-0.216,3.466h-0.995
		l0.563-8.084h1.332l1.379,3.91c0.336,0.995,0.6,1.883,0.815,2.723h0.024c0.216-0.815,0.503-1.703,0.863-2.723l1.439-3.91h1.331
		l0.504,8.084H0.416L0.224,47.057z"/>
	<path fill="#FFFFFF" d="M7.173,49.215c0,0.504,0.024,0.996,0.084,1.392H6.31l-0.084-0.731H6.189
		c-0.324,0.456-0.947,0.863-1.775,0.863c-1.175,0-1.775-0.827-1.775-1.667c0-1.403,1.247-2.171,3.49-2.159v-0.119
		c0-0.468-0.132-1.344-1.319-1.332c-0.552,0-1.116,0.156-1.523,0.432l-0.24-0.707c0.479-0.3,1.187-0.504,1.919-0.504
		c1.775,0,2.207,1.211,2.207,2.362V49.215z M6.153,47.645c-1.151-0.024-2.458,0.18-2.458,1.307c0,0.696,0.456,1.008,0.983,1.008
		c0.768,0,1.259-0.479,1.427-0.972c0.036-0.12,0.048-0.24,0.048-0.336V47.645z"/>
	<path fill="#FFFFFF" d="M8.879,46.612c0-0.684-0.012-1.271-0.048-1.811h0.923l0.048,1.151h0.036
		c0.264-0.779,0.912-1.271,1.619-1.271c0.108,0,0.192,0.012,0.288,0.024v0.995c-0.108-0.024-0.216-0.024-0.36-0.024
		c-0.744,0-1.271,0.552-1.416,1.344c-0.024,0.144-0.036,0.324-0.036,0.491v3.095H8.879V46.612z"/>
	<path fill="#FFFFFF" d="M13.895,47.464h0.024c0.144-0.203,0.336-0.455,0.504-0.659l1.715-2.003h1.259l-2.23,2.387l2.555,3.418
		h-1.295l-1.991-2.782l-0.54,0.6v2.183h-1.043v-8.516h1.043V47.464z"/>
	<path fill="#FFFFFF" d="M22.103,42.522v4.798c0,1.799,0.804,2.566,1.883,2.566c1.188,0,1.967-0.791,1.967-2.566v-4.798h1.056v4.726
		c0,2.482-1.308,3.49-3.059,3.49c-1.655,0-2.902-0.936-2.902-3.454v-4.762H22.103z"/>
	<path fill="#FFFFFF" d="M28.787,46.373c0-0.612-0.013-1.092-0.049-1.571h0.936l0.061,0.959h0.023
		c0.288-0.539,0.96-1.079,1.919-1.079c0.804,0,2.051,0.479,2.051,2.471v3.454h-1.055v-3.346c0-0.936-0.349-1.716-1.344-1.716
		c-0.684,0-1.224,0.492-1.415,1.08c-0.048,0.132-0.072,0.312-0.072,0.491v3.49h-1.055V46.373z"/>
	<path fill="#FFFFFF" d="M35.447,46.612c0-0.684-0.013-1.271-0.049-1.811h0.924l0.048,1.151h0.036
		c0.264-0.779,0.911-1.271,1.619-1.271c0.108,0,0.191,0.012,0.288,0.024v0.995c-0.108-0.024-0.216-0.024-0.36-0.024
		c-0.743,0-1.271,0.552-1.415,1.344c-0.023,0.144-0.036,0.324-0.036,0.491v3.095h-1.055V46.612z"/>
	<path fill="#FFFFFF" d="M39.838,47.896c0.024,1.428,0.924,2.016,1.991,2.016c0.756,0,1.224-0.132,1.607-0.3l0.191,0.755
		c-0.372,0.168-1.02,0.372-1.942,0.372c-1.787,0-2.854-1.188-2.854-2.938s1.031-3.118,2.723-3.118c1.906,0,2.398,1.655,2.398,2.723
		c0,0.216-0.013,0.372-0.036,0.491H39.838z M42.933,47.141c0.012-0.66-0.276-1.703-1.463-1.703c-1.08,0-1.535,0.972-1.619,1.703
		H42.933z"/>
	<path fill="#FFFFFF" d="M49.34,49.215c0,0.504,0.024,0.996,0.084,1.392h-0.947l-0.084-0.731h-0.036
		c-0.323,0.456-0.947,0.863-1.775,0.863c-1.175,0-1.774-0.827-1.774-1.667c0-1.403,1.247-2.171,3.49-2.159v-0.119
		c0-0.468-0.132-1.344-1.319-1.332c-0.552,0-1.115,0.156-1.523,0.432l-0.24-0.707c0.48-0.3,1.188-0.504,1.919-0.504
		c1.775,0,2.207,1.211,2.207,2.362V49.215z M48.32,47.645c-1.151-0.024-2.458,0.18-2.458,1.307c0,0.696,0.455,1.008,0.983,1.008
		c0.768,0,1.259-0.479,1.427-0.972c0.036-0.12,0.048-0.24,0.048-0.336V47.645z"/>
	<path fill="#FFFFFF" d="M56.048,42.091v7.017c0,0.516,0.023,1.104,0.048,1.499H55.16l-0.048-1.008h-0.036
		c-0.312,0.648-1.008,1.14-1.955,1.14c-1.403,0-2.494-1.188-2.494-2.95c-0.013-1.931,1.199-3.106,2.603-3.106
		c0.899,0,1.487,0.42,1.751,0.876h0.023v-3.467H56.048z M55.004,47.164c0-0.132-0.012-0.312-0.048-0.443
		c-0.155-0.66-0.731-1.212-1.522-1.212c-1.092,0-1.739,0.96-1.739,2.231c0,1.175,0.587,2.146,1.715,2.146
		c0.708,0,1.355-0.479,1.547-1.259c0.036-0.145,0.048-0.288,0.048-0.456V47.164z"/>
</g>
</svg>
