<?xml version="1.0" encoding="utf-8"?>
<!-- Generator: Adobe Illustrator 14.0.0, SVG Export Plug-In . SVG Version: 6.00 Build 43363)  -->
<!DOCTYPE svg PUBLIC "-//W3C//DTD SVG 1.1//EN" "http://www.w3.org/Graphics/SVG/1.1/DTD/svg11.dtd">
<svg version="1.1" id="Layer_1" xmlns="http://www.w3.org/2000/svg" xmlns:xlink="http://www.w3.org/1999/xlink" x="0px" y="0px"
	 width="50px" height="50px" viewBox="0 0 50 50" enable-background="new 0 0 50 50" xml:space="preserve">
<g>
	<g>
		<path fill="#E6E6E6" stroke="#E6E6E6" stroke-width="2" stroke-miterlimit="1" d="M12.965,37.367
			c1.047-5.358,2.561-10.667,4.451-15.787c1.568-4.247,3.18-9.831,6.096-13.364c-0.596,0.13-1.191,0.261-1.787,0.391
			c1.229,1.564,1.337,4.2,1.762,6.048c0.553,2.406,1.164,4.799,1.739,7.2c1.117,4.661,2.293,9.336,3.266,14.028
			c0.624-0.199,1.248-0.398,1.873-0.6c-3.342-1.924-6.042-5.256-8.798-7.915c-3.284-3.168-7.338-5.492-10.549-8.702
			c-0.271,0.228-0.543,0.456-0.815,0.684c4.427-0.988,9.01-1.585,13.509-2.139c1.741-0.214,3.47-0.518,5.2-0.801
			c3.396-0.556,2.834,0.272,0.58,1.785c-6.294,4.225-11.951,9.749-16.462,15.819c-0.417,0.562,1.467,0.295,1.761-0.101
			c2.925-3.937,6.295-7.384,9.911-10.684c3.258-2.974,7.293-4.948,10.505-7.893c0.337-0.309-0.291-0.391-0.473-0.377
			c-8.185,0.654-16.702,1.915-24.713,3.704c-0.17,0.038-1.131,0.368-0.815,0.684c2.816,2.816,6.348,4.974,9.356,7.596
			c3.317,2.893,6.151,6.81,9.991,9.021c0.34,0.195,1.993-0.021,1.873-0.6c-1.097-5.296-2.436-10.567-3.695-15.827
			c-0.823-3.437-0.973-8.793-3.188-11.614c-0.299-0.382-1.552,0.106-1.787,0.391c-2.701,3.271-4.093,8.108-5.648,12.006
			c-2.227,5.583-3.898,11.464-5.05,17.362C10.95,38.209,12.864,37.881,12.965,37.367L12.965,37.367z"/>
	</g>
</g>
<g>
	<path fill="#FFFFFF" d="M12.922,51.424c0.467,0.3,1.139,0.528,1.859,0.528c1.067,0,1.691-0.564,1.691-1.38
		c0-0.743-0.432-1.188-1.523-1.595c-1.319-0.479-2.135-1.176-2.135-2.303c0-1.26,1.043-2.195,2.614-2.195
		c0.815,0,1.427,0.192,1.775,0.396l-0.288,0.852c-0.252-0.156-0.792-0.384-1.523-0.384c-1.103,0-1.523,0.659-1.523,1.211
		c0,0.756,0.492,1.127,1.607,1.56c1.367,0.527,2.051,1.187,2.051,2.374c0,1.248-0.912,2.339-2.819,2.339
		c-0.779,0-1.631-0.24-2.062-0.527L12.922,51.424z"/>
	<path fill="#FFFFFF" d="M20.169,45.499v1.392h1.511v0.804h-1.511v3.13c0,0.72,0.204,1.128,0.792,1.128
		c0.288,0,0.456-0.024,0.611-0.072l0.048,0.804c-0.204,0.071-0.528,0.144-0.936,0.144c-0.492,0-0.888-0.168-1.14-0.443
		c-0.288-0.324-0.408-0.84-0.408-1.523v-3.166h-0.899v-0.804h0.899v-1.079L20.169,45.499z"/>
	<path fill="#FFFFFF" d="M26.947,51.304c0,0.504,0.024,0.996,0.084,1.392h-0.947L26,51.964h-0.035
		c-0.324,0.456-0.948,0.863-1.775,0.863c-1.175,0-1.775-0.827-1.775-1.667c0-1.403,1.247-2.171,3.49-2.159v-0.119
		c0-0.468-0.132-1.344-1.319-1.332c-0.551,0-1.115,0.156-1.523,0.432l-0.24-0.707c0.479-0.3,1.188-0.504,1.919-0.504
		c1.774,0,2.206,1.211,2.206,2.362V51.304z M25.929,49.733c-1.151-0.024-2.459,0.18-2.459,1.307c0,0.696,0.456,1.008,0.983,1.008
		c0.768,0,1.26-0.479,1.428-0.972c0.035-0.12,0.048-0.24,0.048-0.336V49.733z"/>
	<path fill="#FFFFFF" d="M28.654,48.701c0-0.684-0.013-1.271-0.049-1.811h0.924l0.048,1.151h0.036
		c0.264-0.779,0.912-1.271,1.619-1.271c0.107,0,0.191,0.012,0.288,0.024v0.995c-0.108-0.024-0.216-0.024-0.36-0.024
		c-0.743,0-1.271,0.552-1.415,1.344c-0.024,0.144-0.036,0.324-0.036,0.491v3.095h-1.055V48.701z"/>
</g>
</svg>
