<?xml version="1.0" encoding="utf-8"?>
<!-- Generator: Adobe Illustrator 14.0.0, SVG Export Plug-In . SVG Version: 6.00 Build 43363)  -->
<!DOCTYPE svg PUBLIC "-//W3C//DTD SVG 1.1//EN" "http://www.w3.org/Graphics/SVG/1.1/DTD/svg11.dtd">
<svg version="1.1" id="Layer_1" xmlns="http://www.w3.org/2000/svg" xmlns:xlink="http://www.w3.org/1999/xlink" x="0px" y="0px"
	 width="193.333px" height="250px" viewBox="0 0 193.333 250" enable-background="new 0 0 193.333 250" xml:space="preserve">
<g id="Layer_2_1_">
</g>
<g id="Layer_1_1_">
	<path fill="#FFEA00" d="M193.333,238c0,6.627-5.192,12-11.6,12H11.6C5.193,250,0,244.627,0,238V12C0,5.373,5.193,0,11.6,0h170.133
		c6.406,0,11.6,5.373,11.6,12V238L193.333,238z"/>
	<path fill="#424242" d="M178.667,162c0,6.627-5.373,12-12,12h-136c-6.627,0-12-5.373-12-12V26c0-6.627,5.373-12,12-12h136
		c6.627,0,12,5.373,12,12V162z"/>
</g>
<path fill="#E6E6E6" stroke="#CCCCCC" d="M154.833-23.936c0,5.081-4.119,9.201-9.201,9.201H53.042c-5.082,0-9.201-4.12-9.201-9.201
	l0,0c0-5.083,4.12-9.202,9.201-9.202h92.589C150.713-33.138,154.833-29.019,154.833-23.936L154.833-23.936z"/>
<circle fill="#FCEE21" stroke="#F7931E" stroke-width="5" cx="92.601" cy="-76.098" r="39.569"/>
<circle fill="#E6E6E6" stroke="#CCCCCC" cx="62.531" cy="-47.036" r="18.691"/>
<circle fill="#E6E6E6" stroke="#CCCCCC" cx="102.37" cy="-41.166" r="24.561"/>
<circle fill="#E6E6E6" stroke="#CCCCCC" cx="74.979" cy="-32.97" r="14.066"/>
<circle fill="#E6E6E6" stroke="#CCCCCC" cx="130.2" cy="-61.222" r="16.965"/>
<circle fill="#E6E6E6" stroke="#CCCCCC" cx="139.114" cy="-44.639" r="17.828"/>
<circle fill="#E6E6E6" stroke="#CCCCCC" cx="55.343" cy="-29.688" r="14.952"/>
</svg>
